<?xml version="1.0" encoding="utf-8"?>
<!-- Generator: Adobe Illustrator 16.0.2, SVG Export Plug-In . SVG Version: 6.00 Build 0)  -->
<!DOCTYPE svg PUBLIC "-//W3C//DTD SVG 1.1//EN" "http://www.w3.org/Graphics/SVG/1.1/DTD/svg11.dtd">
<svg version="1.1" xmlns="http://www.w3.org/2000/svg" xmlns:xlink="http://www.w3.org/1999/xlink" x="0px" y="0px" width="484.5px"
	 height="111px" viewBox="0 0 484.5 111" enable-background="new 0 0 484.5 111" xml:space="preserve">
<g id="Background_copy_2_xA0_Image_1_">
</g>
<g id="Layer_2">
	<path fill="#937F35" stroke="#000000" stroke-width="2" stroke-miterlimit="10" d="M115.125,41.5
		c-4.804,0-8.471,2.146-11.125,5.333V28.5c0-3.038-2.462-5.5-5.5-5.5S93,25.462,93,28.5v50.25c0,3.037,2.462,5.5,5.5,5.5
		c2.639,0,4.841-1.859,5.375-4.339c2.961,3.624,6.911,5.839,11.25,5.839c9.182,0,16.625-9.905,16.625-22.125
		C131.75,51.406,124.307,41.5,115.125,41.5z M112.875,74.75c-5.04,0-8.458-5.093-8.458-11.375S107.835,52,112.875,52
		s8.625,5.093,8.625,11.375S117.915,74.75,112.875,74.75z"/>
	<path fill="#937F34" stroke="#000000" stroke-width="2" stroke-miterlimit="10" d="M169.167,70.833
		c-4.583-1.125-10.667,8.959-19.87,2.113c-2.047-2.196-2.63-2.363-4.38-5.946c-0.208-0.613,25.333,0.583,26.583-0.167
		c0.001-0.22,1.5-0.416,1.5-3.708c0-11.805-8.563-21.375-19.125-21.375s-19.125,9.57-19.125,21.375
		c0,11.805,8.333,21.667,19.125,21.875c13.042-0.458,19.625-8.25,18.208-10.917C171.5,72.667,171.458,72.5,169.167,70.833z
		 M144.167,59.375c0-5.178,4.117-8.958,9.708-8.958s9.208,3.781,9.208,8.958H144.167z"/>
	<path fill="#937F34" stroke="#000000" stroke-width="2" stroke-miterlimit="10" d="M209.5,41.75c-2.004,0-3.625,1.625-4.083,3.667
		c-3.043-2.75-6.978-4.333-11.042-4.333c-10.148,0-17.688,8.921-17.688,21.417c0,12.495,7.456,22.834,17.604,22.834
		c4.01,0,7.854-1.815,10.875-4.5C205.972,82.746,207.352,85,209.5,85c2.485,0,4.5-2.015,4.5-4.5V46.25
		C214,43.765,211.985,41.75,209.5,41.75z M194.75,75c-4.556,0.073-8.25-5.205-8.25-11.625c0-6.42,3.694-11.701,8.25-11.625
		c5,0.083,8.667,5.039,8.667,11.459C203.417,69.629,199.917,74.917,194.75,75z"/>
	<path fill="#937F34" stroke="#000000" stroke-width="2" stroke-miterlimit="10" d="M251.5,41.916c-2.004,0-3.625,1.625-4.083,3.667
		c-3.043-2.75-6.978-4.333-11.042-4.333c-10.148,0-18.183,9.467-18.458,21.959c-0.313,14.167,8.227,22.291,18.375,22.291
		c4.011,0,7.854-1.815,10.875-4.5c0,5.804-4.75,10.563-12.167,10.5l-5.875-1.125l-4.073-1.629c0,0-1.766-1.001-3.396-0.889
		c-2.073,0.143-4.656,2.476-3.323,7.226c0.583,3.084,7.981,6.084,17.792,6.084c12.542,0,19.875-8.5,19.875-20.501v-34.25
		C256,43.931,253.985,41.916,251.5,41.916z M236.75,75.166c-4.556,0.073-9.083-5.371-9.083-11.791c0-6.42,4.528-11.535,9.083-11.459
		c5,0.083,8.666,5.039,8.666,11.459C245.416,69.795,241.916,75.083,236.75,75.166z"/>
	<path fill="#937F34" stroke="#000000" stroke-width="2" stroke-miterlimit="10" d="M272,28.75c0-3.176-2.574-5.75-5.75-5.75l0,0
		c-3.176,0-5.75,2.574-5.75,5.75v50.5c0,3.176,2.574,5.75,5.75,5.75l0,0c3.176,0,5.75-2.574,5.75-5.75V28.75z"/>
	<path fill="#937F34" stroke="#000000" stroke-width="2" stroke-miterlimit="10" d="M310.291,70.583
		c-4.582-1.125-10.666,8.959-19.869,2.113c-2.047-2.196-2.631-2.363-4.381-5.946c-0.207-0.613,25.334,0.583,26.584-0.167
		c0.002-0.22,1.5-0.416,1.5-3.708c0-11.805-8.563-21.375-19.125-21.375s-19.125,9.57-19.125,21.375
		c0,11.805,8.334,21.667,19.125,21.875c13.041-0.458,19.625-8.25,18.209-10.917C312.625,72.417,312.584,72.25,310.291,70.583z
		 M285.291,59.125c0-5.178,4.117-8.958,9.709-8.958s9.209,3.781,9.209,8.958H285.291z"/>
	<path fill="#B8672F" stroke="#000000" stroke-width="2" stroke-miterlimit="10" d="M340.125,41.5
		c-4.805,0-8.471,2.146-11.125,5.333V28.5c0-3.038-2.463-5.5-5.5-5.5s-5.5,2.462-5.5,5.5v50.25c0,3.037,2.463,5.5,5.5,5.5
		c2.639,0,4.842-1.859,5.375-4.339c2.961,3.624,6.91,5.839,11.25,5.839c9.182,0,16.625-9.905,16.625-22.125
		C356.75,51.406,349.307,41.5,340.125,41.5z M337.875,74.75c-5.039,0-8.459-5.093-8.459-11.375S332.836,52,337.875,52
		s8.625,5.093,8.625,11.375S342.914,74.75,337.875,74.75z"/>
	<path fill="#B8682D" stroke="#000000" stroke-width="2" stroke-miterlimit="10" d="M379.25,41.083
		c-10.907,0-18.75,9.906-18.75,22.125c0,12.219,7.843,22.125,18.75,22.125S398,75.428,398,63.209
		C398,50.989,390.157,41.083,379.25,41.083z M379.25,75c-5.338,0-8.25-5.432-8.25-11.875s2.912-11.905,8.25-11.905
		c5.339,0,8.833,5.545,8.833,11.989S384.589,75,379.25,75z"/>
	<g>
		<path fill="#B8682D" stroke="#000000" stroke-width="2" stroke-miterlimit="10" d="M430.375,43
			c-4.563-1.969-8.688-1.813-10.75-1.5s-3.75,1-5.625,2.625s-1.875,1.625-1.875,1.625S410.938,41.5,407,41.5
			s-5.125,2.294-5.125,5.125v33c0,2.83,2.295,5.125,5.125,5.125s5.125-2.295,5.125-5.125c0.152-22.187,0.313-21.063,0.469-22.844
			s1.962-3.903,3.094-4.656c1.338-0.891,2.344-1.063,4.125-1.125s5.313,1.094,5.813,2.875s0.125,25.896,0.125,25.896
			c0,3.072,2.49,5.563,5.563,5.563s5.563-2.49,5.563-5.563V51.313C436.875,48.625,433.563,44.563,430.375,43z"/>
	</g>
	<path fill="#B8682D" stroke="#000000" stroke-width="2" stroke-miterlimit="10" d="M476.666,70.833
		c-4.582-1.125-10.666,8.959-19.869,2.113c-2.047-2.196-2.631-2.363-4.381-5.946c-0.207-0.613,25.334,0.583,26.584-0.167
		c0.002-0.22,1.5-0.416,1.5-3.708c0-11.805-8.563-21.375-19.125-21.375s-19.125,9.57-19.125,21.375S450.583,84.792,461.375,85
		c13.041-0.458,19.625-8.25,18.209-10.917C479,72.667,478.959,72.5,476.666,70.833z M451.666,59.375
		c0-5.178,4.117-8.959,9.709-8.959s9.209,3.781,9.209,8.959H451.666z"/>
</g>
<g id="Layer_3">
	<g>
		<path fill-rule="evenodd" clip-rule="evenodd" fill="#060605" d="M18.734,70.608c0.432-4.251,1.155-8.117,2.587-11.811
			c0.375-0.967-0.408-0.725-0.723-0.792c-2.089-0.446-4.078-1.139-5.918-2.229c-6.564-3.885-9.012-11.064-6.385-18.766
			c1.083-3.176,2.879-6.03,4.194-9.105c1.709-3.997,3.089-8.129,5.006-12.038c1.637-3.339,3.922-5.889,7.822-6.503
			c0.52-0.082,0.808-0.524,1.165-0.841c7.021-6.22,18.584-7.518,26.538-2.95c4.017,2.308,6.785,5.751,8.948,9.785
			c0.94,1.751,1.543,3.608,2.157,5.466c0.203,0.617,0.503,0.911,1.071,1.116c4.587,1.664,8.881,3.847,12.515,7.174
			c0.417,0.382,0.938,0.401,1.438,0.527c3.925,0.986,6.012,4.608,4.17,8.088c-0.138,0.262-0.171,0.514-0.126,0.842
			c0.405,3.026,0.011,5.951-1.337,8.705c-0.275,0.562-0.317,0.911,0.062,1.468c1.968,2.893,1.748,6.318-0.5,8.991
			c-2.449,2.915-6.245,2.836-8.479-0.241c-0.494-0.68-0.852-0.702-1.531-0.347c-1.85,0.967-3.827,1.631-5.845,2.135
			c-0.652,0.164-0.759,0.295-0.542,0.951c1.583,4.784,2.247,9.718,2.21,14.743c-0.03,4.267-0.57,8.482-1.77,12.581
			c-0.271,0.93-0.006,1.214,0.734,1.584c2.637,1.322,4.251,3.469,4.765,6.374c0.773,4.372-1.993,5.902-4.89,6.239
			c-0.815,0.094-1.255,0.104-1.281,1.168c-0.044,1.853-1.312,2.899-2.937,3.582c-3.944,1.658-10.532,0.381-13.494-2.664
			c-1.406-1.446-2.238-3.163-2.154-5.224c0.026-0.646-0.076-0.925-0.824-0.897c-1.72,0.063-3.444,0.028-5.167,0.018
			c-0.46-0.004-0.78,0.023-0.754,0.645c0.204,4.929-3.92,7.452-7.46,8.322c-2.455,0.604-4.941,0.759-7.423,0.052
			c-2.307-0.659-3.363-1.89-3.525-4.289c-0.039-0.574-0.241-0.678-0.736-0.659c-0.905,0.034-1.779-0.172-2.622-0.486
			c-1.722-0.643-2.584-1.948-2.742-3.729c-0.342-3.881,1.571-6.564,4.709-8.487c0.824-0.504,0.952-0.889,0.736-1.81
			c-0.384-1.642-1.161-2.976-2.188-4.297c-4.477-5.759-7.887-12.075-9.645-19.214c-0.317-1.286-0.41-2.58-0.337-3.888
			c0.083-1.479,0.874-2.458,2.171-2.768c1.368-0.325,2.739,0.26,3.417,1.532c0.916,1.721,1.225,3.652,1.839,5.478
			C16.385,66.314,17.232,68.434,18.734,70.608z M11.37,65.883c2.105,6.433,5.353,12.231,9.683,17.428
			c0.337,0.404,0.688,0.778,0.798,1.321c0.272,1.35,0.546,2.701,1.093,3.975c0.209,0.487,0.104,0.779-0.418,0.918
			c-1.002,0.268-1.754,0.964-2.53,1.58c-1.453,1.152-2.596,2.54-2.956,4.446c-0.45,2.384,0.431,4.122,2.411,4.612
			c0.577,0.143,1.186,0.149,1.771,0.266c1.185,0.234,1.85-0.18,2.176-1.391c0.229-0.852,0.758-1.619,1.115-2.441
			c0.505-1.158,1.15-2.253,1.305-3.557c0.39-3.272,0.387-6.563,0.564-9.844c0.244-4.503-0.1-9.044,0.95-13.489
			c0.403-0.133,0.398,0.184,0.482,0.424c0.389,1.107,0.527,2.256,0.525,3.419c-0.01,5.723-0.387,11.435-0.608,17.15
			c-0.097,2.506-0.667,4.854-1.914,7.059c-0.695,1.23-1.261,2.545-1.552,3.949c-0.301,1.452,0.194,2.371,1.643,2.687
			c2.854,0.623,5.671,0.428,8.302-0.912c2.449-1.247,3.391-3.324,2.931-6.047c-0.081-0.479-0.123-0.965-0.169-1.448
			c-0.467-4.766-0.621-9.551-0.813-14.331c-0.071-1.757-0.063-3.566,0.646-5.439c0.699,1.518,1.026,2.95,1.041,4.433
			c0.046,4.976,0.4,9.935,0.719,14.897c0.042,0.661,0.212,0.911,0.922,0.851c2.572-0.227,5.154-0.307,7.727-0.033
			c0.715,0.075,0.786-0.229,0.819-0.799c0.312-5.222,0.646-10.441,0.974-15.663c0.079-1.254,0.285-2.47,1.023-3.703
			c0.111,0.277,0.173,0.402,0.211,0.533c0.687,2.354,0.421,4.746,0.256,7.131c-0.309,4.475-0.558,8.957-0.994,13.422
			c-0.292,2.992,0.583,4.974,3.299,6.271c2.508,1.199,5.17,1.421,7.882,0.912c1.777-0.332,2.265-1.225,1.781-3.005
			c-0.466-1.709-1.333-3.24-2.148-4.787c-0.839-1.59-1.209-3.257-1.336-5.041c-0.343-4.813-0.418-9.637-0.585-14.456
			c-0.104-3.019-0.37-6.057,0.214-9.065c0.75,1.146,1.238,2.403,1.291,3.766c0.174,4.484,0.313,8.971,0.431,13.456
			c0.122,4.642,0.171,9.255,2.843,13.396c1.155,1.791,0.96,1.915,3.116,1.658c0.112-0.012,0.222-0.031,0.333-0.051
			c2.803-0.489,3.888-2.112,3.225-4.902c-0.689-2.9-2.63-4.711-5.28-5.831c-0.594-0.251-0.77-0.453-0.559-1.121
			c1.681-5.328,2.336-10.787,2.046-16.373c-0.21-4.059-0.936-8.009-2.185-11.873c-0.217-0.67-0.462-0.921-1.264-0.769
			c-2.689,0.51-5.424,0.57-8.158,0.552c-2.124-0.111-4.242-0.266-6.337-0.655c-0.431-0.079-0.927-0.005-0.78-0.734
			c0.135-0.671,0.572-0.443,0.947-0.381c6.346,1.064,12.624,0.833,18.821-0.974c0.362,0.036,0.642-0.102,0.897-0.404
			c-0.339-0.045-0.634-0.174-0.884,0.095c-1.35,0.172-2.692,0.001-4.025-0.149c-2.724-0.308-5.355-0.998-7.841-2.172
			c-0.572-0.269-1.198-0.602-1.121-1.377c0.074-0.748,0.708-0.997,1.319-1.212c0.245-0.085,0.5-0.163,0.755-0.197
			c1.666-0.226,3.337-0.413,5-0.659c4.438-0.657,8.837-1.476,12.973-3.326c3.29-1.472,6.043-3.545,7.794-6.789
			c0.279-0.516,0.409-0.992,0.139-1.641c-1.938,1.657-4.107,2.428-6.555,2.323c-1.969-0.083-3.728-0.707-5.134-2.158
			c-2.216-2.288-1.952-5.782,0.594-8.049c1.455-1.294,3.2-1.926,5.276-2.251c-3.865-3.121-8.008-5.25-12.538-6.657
			c-0.679-0.649-0.527-1.678-1.066-2.395c-1.828,1.159-3.919,1.086-5.298-0.167c-1.212-1.103-1.134-2.678,0.192-3.65
			c0.615-0.45,1.299-0.724,2.073-0.776c0.343-0.022,0.722,0.093,1.065-0.157c-0.121-0.246-0.206-0.454-0.318-0.645
			c-2.297-3.901-5.146-7.145-9.461-9.02c-2.154-0.936-4.293-1.576-6.598-1.78c-0.557-0.035-1.113-0.07-1.67-0.104
			c-6.397-0.292-12.669,2.819-14.487,5.199c2.708,0.318,4.622,1.752,5.922,4.111c1.039,1.886,1.662,3.917,2.214,5.976
			c1.218,4.545,2.155,9.169,3.822,13.586c1.166,3.088,2.074,6.238,2.353,9.544c0.604,7.152-2.6,12.972-10.093,14.976
			c-2.499,0.667-5.027,0.733-7.57,0.559c-0.829-0.057-1.2,0.205-1.473,0.951c-1.498,4.106-2.354,8.338-2.563,12.699
			c-0.047,0.989-0.007,1.982-0.007,2.975c-1.479-1.074-2.438-2.393-3.327-3.767c-1.537-2.375-2.443-5.024-3.361-7.67
			c-0.178-1.218-0.56-2.38-1.049-3.504c-0.318-0.733-0.764-1.49-1.702-1.319c-1.032,0.188-1.071,1.131-1.087,1.952
			C10.219,62.19,10.697,64.058,11.37,65.883z M27.505,56.872c0.97,0.034,2.525-0.151,4.063-0.502
			c5.37-1.226,8.739-4.597,9.619-9.705c0.531-3.082,0.126-6.122-0.748-9.082c-1.397-4.726-3.187-9.332-4.276-14.153
			c-0.667-2.951-1.365-5.903-2.6-8.685c-2.132-4.803-7.834-6.049-11.592-2.499c-1.488,1.407-2.378,3.246-3.187,5.108
			c-1.951,4.489-3.55,9.123-5.643,13.554c-1.178,2.496-2.583,4.884-3.256,7.609c-1.901,7.692,1.461,14.185,8.872,16.975
			C21.377,56.479,24.111,56.828,27.505,56.872z M70.911,51.818c1.671,1.341,2.533,3.031,3.738,4.447
			c1.684,1.979,4.268,1.941,5.887-0.082c1.825-2.282,1.474-6.158-0.717-8.079c-0.317-0.278-0.556-0.447-0.944-0.096
			C76.68,49.989,74.034,51.068,70.911,51.818z M72.834,35.028c2.181-0.064,5.687-1.424,7.067-2.725
			c0.401-0.379,0.953-0.779,0.65-1.406c-0.261-0.54-0.913-0.487-1.411-0.452c-2.587,0.182-4.936,1.053-7,2.629
			c-0.431,0.33-0.987,0.746-0.762,1.375C71.629,35.149,72.356,34.973,72.834,35.028z M58.88,16.793
			c-0.683-0.009-1.138,0.246-1.158,0.857c-0.021,0.621,0.455,0.925,1.021,0.927c0.504,0.001,0.953-0.238,1-0.822
			C59.795,17.103,59.373,16.853,58.88,16.793z"/>
		<path fill-rule="evenodd" clip-rule="evenodd" fill="#FDFDFD" d="M63.747,22.656c4.53,1.407,8.673,3.536,12.538,6.657
			c-2.076,0.325-3.821,0.957-5.276,2.251c-2.546,2.268-2.81,5.762-0.594,8.049c1.406,1.451,3.166,2.074,5.134,2.158
			c2.448,0.104,4.617-0.667,6.555-2.323c0.271,0.649,0.14,1.125-0.139,1.641c-1.75,3.243-4.504,5.317-7.794,6.789
			c-4.136,1.85-8.535,2.669-12.973,3.326c-1.663,0.247-3.334,0.434-5,0.659c-0.256,0.035-0.51,0.112-0.755,0.197
			c-0.611,0.215-1.245,0.464-1.319,1.212c-0.077,0.775,0.549,1.108,1.121,1.377c2.486,1.174,5.118,1.864,7.841,2.172
			c1.333,0.15,2.676,0.321,4.025,0.149c-0.004,0.104-0.009,0.206-0.013,0.31c-6.197,1.807-12.475,2.038-18.821,0.974
			c-0.375-0.062-0.812-0.29-0.947,0.381c-0.147,0.729,0.349,0.655,0.78,0.734c2.095,0.389,4.214,0.543,6.338,0.655
			c0.222,0.299,0.438,0.6,0.666,0.894c1.662,2.158,2.929,4.509,3.495,7.198c-0.584,3.009-0.318,6.047-0.214,9.065
			c0.167,4.819,0.242,9.643,0.585,14.456c0.127,1.784,0.497,3.451,1.336,5.041c0.815,1.547,1.682,3.078,2.148,4.787
			c0.484,1.78-0.004,2.673-1.781,3.005c-2.712,0.509-5.375,0.287-7.882-0.912c-2.715-1.298-3.591-3.279-3.299-6.271
			c0.436-4.465,0.685-8.947,0.994-13.422c0.165-2.385,0.43-4.776-0.256-7.131c-0.038-0.131-0.1-0.256-0.211-0.533
			c-0.738,1.233-0.944,2.449-1.023,3.703c-0.328,5.222-0.662,10.441-0.974,15.663c-0.033,0.57-0.104,0.874-0.819,0.799
			c-2.573-0.273-5.155-0.193-7.727,0.033c-0.71,0.061-0.88-0.189-0.922-0.851c-0.319-4.963-0.673-9.922-0.719-14.897
			c-0.014-1.482-0.341-2.915-1.041-4.433c-0.709,1.873-0.717,3.683-0.646,5.439c0.192,4.78,0.346,9.565,0.813,14.331
			c0.047,0.483,0.088,0.97,0.169,1.448c0.459,2.723-0.482,4.8-2.931,6.047c-2.63,1.34-5.448,1.535-8.302,0.912
			c-1.449-0.315-1.944-1.234-1.643-2.687c0.291-1.404,0.857-2.719,1.552-3.949c1.247-2.204,1.816-4.553,1.914-7.059
			c0.222-5.716,0.598-11.428,0.608-17.15c0.002-1.163-0.136-2.312-0.525-3.419c-0.084-0.24-0.079-0.557-0.482-0.424
			c-0.086-0.907,0.083-1.795,0.263-2.67c0.979-4.779,4.438-7.927,9.711-7.021c1.342,0.231,2.676,0.192,4.018-0.021
			c4.487-0.712,7.779-4.41,5.424-9.388c-1.037-2.19-1.657-4.556-2.22-6.928c-1.308-5.501-0.364-10.309,4.092-14.142
			c0.76-0.654,1.431-1.432,2.045-2.229c1.072-1.389,1.511-2.962,1.207-4.738c-0.403-2.355-1.396-4.487-2.403-6.614
			c-1.973-4.164-4.428-8.056-6.802-11.993c0.557,0.034,1.113,0.069,1.67,0.104c2.738,4.705,5.64,9.304,8.756,13.768
			c0.582,0.835,1.231,1.604,2.104,2.138C57.82,21.576,60.718,22.327,63.747,22.656z"/>
		<path fill-rule="evenodd" clip-rule="evenodd" fill="#A77E2C" d="M27.505,56.872c-3.394-0.043-6.128-0.393-8.748-1.379
			c-7.411-2.79-10.773-9.283-8.872-16.975c0.673-2.725,2.078-5.113,3.256-7.609c2.093-4.431,3.692-9.065,5.643-13.554
			c0.809-1.862,1.698-3.701,3.187-5.108c3.758-3.551,9.46-2.305,11.592,2.499c1.235,2.781,1.933,5.734,2.6,8.685
			c1.089,4.821,2.879,9.428,4.276,14.153c0.874,2.96,1.279,6,0.748,9.082c-0.88,5.108-4.25,8.479-9.619,9.705
			C30.031,56.721,28.475,56.906,27.505,56.872z M38.926,39.961c-4.011,6.595-10.183,10.488-16.915,13.74
			c2.227,0.185,4.352,0.556,6.561,0.262c2.265-0.302,4.389-0.84,6.292-2.092C38.414,49.534,39.782,44.816,38.926,39.961z"/>
		<path fill-rule="evenodd" clip-rule="evenodd" fill="#A77E2C" d="M42.666,3.962c2.375,3.937,4.83,7.83,6.802,11.993
			c1.008,2.127,2,4.259,2.403,6.614c0.305,1.775-0.134,3.349-1.207,4.738c-0.614,0.797-1.286,1.575-2.045,2.229
			c-4.456,3.833-5.399,8.64-4.092,14.142c0.563,2.372,1.183,4.737,2.22,6.928c2.354,4.978-0.938,8.676-5.424,9.388
			c-1.342,0.213-2.676,0.252-4.018,0.021c-5.272-0.906-8.731,2.242-9.711,7.021c-0.18,0.875-0.35,1.763-0.263,2.67
			c-1.05,4.445-0.707,8.986-0.95,13.489c-0.177,3.281-0.174,6.571-0.564,9.844c-0.155,1.304-0.8,2.398-1.305,3.557
			c-0.357,0.822-0.886,1.59-1.115,2.441c-0.326,1.211-0.991,1.625-2.176,1.391c-0.584-0.116-1.193-0.123-1.771-0.266
			c-1.98-0.49-2.861-2.229-2.411-4.612c0.36-1.906,1.503-3.294,2.956-4.446c0.776-0.616,1.528-1.313,2.53-1.58
			c0.522-0.139,0.628-0.431,0.418-0.918c-0.547-1.273-0.821-2.625-1.093-3.975c-0.109-0.543-0.461-0.917-0.798-1.321
			c-4.33-5.196-7.578-10.995-9.683-17.429c0.877-0.958,1.63-2.037,2.726-2.78c0.918,2.646,1.825,5.295,3.361,7.67
			c0.89,1.374,1.848,2.692,3.327,3.767c0-0.992-0.041-1.985,0.007-2.975c0.209-4.36,1.065-8.593,2.563-12.699
			c0.272-0.747,0.644-1.008,1.473-0.951c2.543,0.174,5.072,0.109,7.57-0.559c7.493-2.004,10.697-7.824,10.093-14.976
			c-0.279-3.306-1.187-6.456-2.353-9.544c-1.667-4.417-2.604-9.041-3.822-13.586c-0.552-2.058-1.175-4.09-2.214-5.976
			c-1.301-2.359-3.215-3.793-5.922-4.111C29.997,6.781,36.269,3.671,42.666,3.962z M43.164,23.945
			c1.233,0.016,2.561-0.444,3.319-1.148c1.302-1.209,1.227-2.853-0.177-3.941c-1.63-1.261-4.601-1.235-6.211,0.054
			c-1.396,1.117-1.383,2.928,0.027,4.03C41.014,23.639,42.07,23.848,43.164,23.945z"/>
		<path fill-rule="evenodd" clip-rule="evenodd" fill="#A67E2C" d="M58.61,68.114c-0.566-2.689-1.833-5.04-3.495-7.198
			c-0.227-0.294-0.444-0.595-0.666-0.894c2.733,0.019,5.468-0.042,8.157-0.552c0.802-0.152,1.047,0.099,1.264,0.769
			c1.25,3.864,1.975,7.814,2.185,11.873c0.29,5.586-0.365,11.045-2.046,16.373c-0.211,0.668-0.035,0.87,0.559,1.121
			c2.65,1.12,4.591,2.931,5.28,5.831c0.663,2.79-0.422,4.413-3.225,4.902c-0.11,0.02-0.221,0.039-0.333,0.051
			c-2.155,0.257-1.96,0.133-3.116-1.658c-2.672-4.142-2.721-8.755-2.843-13.396c-0.118-4.485-0.257-8.972-0.431-13.456
			C59.848,70.518,59.36,69.26,58.61,68.114z"/>
		<path fill-rule="evenodd" clip-rule="evenodd" fill="#A77F2D" d="M63.747,22.656c-3.028-0.329-5.926-1.08-8.551-2.684
			c-0.873-0.534-1.521-1.303-2.104-2.138c-3.116-4.463-6.018-9.063-8.756-13.768c2.305,0.204,4.444,0.844,6.598,1.78
			c4.314,1.875,7.164,5.118,9.461,9.02c0.112,0.191,0.197,0.399,0.318,0.645c-0.343,0.25-0.723,0.135-1.065,0.157
			c-0.774,0.052-1.458,0.326-2.073,0.776c-1.326,0.972-1.404,2.547-0.192,3.65c1.379,1.253,3.47,1.326,5.298,0.167
			C63.22,20.978,63.067,22.007,63.747,22.656z"/>
		<path fill-rule="evenodd" clip-rule="evenodd" fill="#EE6121" d="M70.911,51.818c3.124-0.75,5.77-1.83,7.963-3.81
			c0.388-0.351,0.627-0.182,0.944,0.096c2.191,1.921,2.542,5.797,0.717,8.079c-1.619,2.023-4.203,2.061-5.887,0.082
			C73.444,54.85,72.582,53.16,70.911,51.818z M76.537,50.543c-0.014,0.191,0.039,0.353,0.207,0.462
			c1.03,1.608,2.167,3.152,2.876,4.948c-0.311-2.021-0.862-3.906-2.823-4.993c-0.019-0.18-0.072-0.341-0.253-0.422
			c-0.081-0.058-0.161-0.114-0.242-0.17c-0.019,0.029-0.038,0.057-0.057,0.086C76.342,50.484,76.439,50.513,76.537,50.543z"/>
		<path fill-rule="evenodd" clip-rule="evenodd" fill="#F9F9F9" d="M72.834,35.028c-0.478-0.055-1.205,0.121-1.456-0.578
			c-0.225-0.629,0.332-1.046,0.762-1.375c2.064-1.576,4.413-2.447,7-2.629c0.498-0.035,1.15-0.088,1.411,0.452
			c0.303,0.627-0.249,1.027-0.65,1.406C78.521,33.604,75.015,34.964,72.834,35.028z"/>
		<path fill-rule="evenodd" clip-rule="evenodd" fill="#F9F9F9" d="M14.096,63.102c-1.096,0.743-1.849,1.822-2.726,2.78
			c-0.673-1.824-1.151-3.691-1.113-5.651c0.016-0.82,0.055-1.763,1.087-1.952c0.938-0.171,1.384,0.586,1.702,1.319
			C13.536,60.721,13.918,61.883,14.096,63.102z"/>
		<path fill-rule="evenodd" clip-rule="evenodd" fill="#EEEEEE" d="M58.88,16.793c0.493,0.06,0.915,0.31,0.863,0.962
			c-0.046,0.583-0.496,0.823-1,0.822c-0.566-0.002-1.042-0.306-1.021-0.927C57.743,17.039,58.197,16.784,58.88,16.793z"/>
		<path fill-rule="evenodd" clip-rule="evenodd" fill="#5E5E5E" d="M67.099,57.279c0.004-0.104,0.009-0.206,0.013-0.31
			c0.25-0.269,0.544-0.14,0.884-0.095C67.741,57.177,67.461,57.314,67.099,57.279z"/>
		<path fill-rule="evenodd" clip-rule="evenodd" fill="#886326" d="M38.926,39.961c0.856,4.855-0.512,9.573-4.063,11.91
			c-1.903,1.252-4.026,1.791-6.292,2.092c-2.209,0.294-4.334-0.078-6.561-0.262C28.743,50.449,34.915,46.556,38.926,39.961z"/>
		<path fill-rule="evenodd" clip-rule="evenodd" fill="#040301" d="M43.163,23.947c-1.093-0.099-2.149-0.308-3.042-1.007
			c-1.411-1.103-1.423-2.913-0.027-4.03c1.611-1.289,4.581-1.314,6.211-0.054c1.404,1.088,1.479,2.731,0.177,3.941
			C45.724,23.501,44.397,23.961,43.163,23.947z M41.835,20.784c0.616-0.096,1.209-0.28,1.173-1.045
			c-0.031-0.674-0.546-0.918-1.16-0.922c-0.65-0.004-1.226,0.224-1.239,0.96C40.597,20.525,41.204,20.706,41.835,20.784z"/>
		<path fill-rule="evenodd" clip-rule="evenodd" fill="#B04A23" d="M76.798,50.959c1.96,1.088,2.511,2.973,2.822,4.994
			c-0.708-1.795-1.846-3.34-2.875-4.948L76.798,50.959z"/>
		<path fill-rule="evenodd" clip-rule="evenodd" fill="#B04A23" d="M76.537,50.543c-0.097-0.03-0.195-0.059-0.292-0.088
			c0.02-0.029,0.039-0.057,0.057-0.086c0.081,0.056,0.162,0.112,0.242,0.17L76.537,50.543z"/>
		<path fill-rule="evenodd" clip-rule="evenodd" fill="#B04A23" d="M76.543,50.539c0.182,0.081,0.235,0.242,0.254,0.422
			c0-0.001-0.053,0.045-0.053,0.045c-0.168-0.11-0.221-0.271-0.208-0.462L76.543,50.539z"/>
		<path fill-rule="evenodd" clip-rule="evenodd" fill="#EBEBEB" d="M41.835,20.784c-0.631-0.078-1.238-0.258-1.226-1.007
			c0.013-0.737,0.588-0.964,1.239-0.96c0.614,0.003,1.129,0.248,1.16,0.922C43.045,20.504,42.451,20.688,41.835,20.784z"/>
	</g>
</g>
</svg>
