<?xml version="1.0" encoding="utf-8"?>
<!-- Generator: Adobe Illustrator 16.0.2, SVG Export Plug-In . SVG Version: 6.00 Build 0)  -->
<!DOCTYPE svg PUBLIC "-//W3C//DTD SVG 1.1//EN" "http://www.w3.org/Graphics/SVG/1.1/DTD/svg11.dtd">
<svg version="1.1" id="Layer_1" xmlns="http://www.w3.org/2000/svg" xmlns:xlink="http://www.w3.org/1999/xlink" x="0px" y="0px"
	 width="477.095px" height="476px" viewBox="0 0 477.095 476" enable-background="new 0 0 477.095 476" xml:space="preserve">
<g>
	<path fill-rule="evenodd" clip-rule="evenodd" fill="#060605" d="M119.848,308.265c1.92-18.912,5.141-36.115,11.514-52.55
		c1.668-4.302-1.816-3.224-3.216-3.522c-9.295-1.982-18.145-5.067-26.331-9.913c-29.205-17.287-40.1-49.23-28.409-83.497
		c4.822-14.135,12.814-26.832,18.664-40.515c7.602-17.782,13.746-36.167,22.273-53.563c7.283-14.854,17.45-26.197,34.804-28.934
		c2.313-0.365,3.594-2.334,5.186-3.744c31.234-27.673,82.684-33.449,118.071-13.123c17.874,10.268,30.186,25.593,39.815,43.535
		c4.182,7.791,6.864,16.055,9.594,24.325c0.905,2.743,2.242,4.046,4.767,4.961c20.409,7.405,39.515,17.121,55.684,31.925
		c1.854,1.698,4.172,1.782,6.399,2.341c17.464,4.385,26.751,20.506,18.554,35.989c-0.616,1.164-0.76,2.286-0.563,3.745
		c1.805,13.466,0.047,26.479-5.947,38.729c-1.225,2.503-1.411,4.057,0.273,6.533c8.755,12.868,7.774,28.109-2.224,40.005
		c-10.897,12.969-27.786,12.616-37.727-1.073c-2.199-3.028-3.79-3.126-6.815-1.544c-8.229,4.305-17.025,7.256-26.006,9.5
		c-2.9,0.725-3.376,1.315-2.411,4.232c7.045,21.282,9.998,43.24,9.837,65.596c-0.137,18.984-2.537,37.74-7.876,55.977
		c-1.211,4.139-0.027,5.398,3.264,7.047c11.735,5.88,18.917,15.431,21.202,28.359c3.438,19.45-8.868,26.26-21.757,27.76
		c-3.625,0.423-5.583,0.464-5.697,5.205c-0.198,8.241-5.837,12.897-13.067,15.935c-17.55,7.374-46.859,1.69-60.04-11.857
		c-6.258-6.433-9.959-14.075-9.583-23.243c0.117-2.87-0.337-4.113-3.667-3.99c-7.654,0.281-15.326,0.125-22.991,0.075
		c-2.049-0.013-3.471,0.108-3.357,2.871c0.906,21.927-17.441,33.162-33.193,37.03c-10.925,2.683-21.99,3.375-33.03,0.225
		c-10.264-2.928-14.961-8.404-15.685-19.08c-0.173-2.555-1.071-3.021-3.273-2.938c-4.028,0.152-7.914-0.757-11.665-2.158
		c-7.663-2.862-11.501-8.669-12.2-16.597c-1.523-17.263,6.992-29.205,20.953-37.761c3.664-2.244,4.234-3.954,3.276-8.054
		c-1.708-7.305-5.165-13.233-9.735-19.112c-19.921-25.626-35.093-53.729-42.914-85.493c-1.409-5.721-1.822-11.477-1.5-17.296
		c0.364-6.585,3.888-10.938,9.659-12.313c6.083-1.449,12.189,1.154,15.205,6.818c4.074,7.65,5.45,16.246,8.182,24.369
		C109.397,289.158,113.164,298.592,119.848,308.265z M87.085,287.237c9.363,28.623,23.813,54.423,43.079,77.542
		c1.498,1.797,3.063,3.466,3.55,5.88c1.21,6.005,2.428,12.021,4.861,17.685c0.932,2.168,0.462,3.467-1.861,4.088
		c-4.459,1.189-7.806,4.284-11.258,7.026c-6.462,5.131-11.552,11.299-13.153,19.779c-2.004,10.61,1.916,18.345,10.73,20.525
		c2.566,0.635,5.275,0.67,7.878,1.185c5.27,1.043,8.224-0.803,9.676-6.188c1.021-3.791,3.372-7.208,4.964-10.863
		c2.245-5.153,5.115-10.022,5.807-15.828c1.735-14.555,1.721-29.197,2.51-43.796c1.083-20.032-0.44-40.24,4.229-60.02
		c1.794-0.593,1.772,0.821,2.146,1.886c1.729,4.929,2.346,10.042,2.337,15.216c-0.044,25.465-1.723,50.873-2.708,76.305
		c-0.432,11.149-2.966,21.602-8.513,31.409c-3.093,5.471-5.614,11.32-6.907,17.571c-1.337,6.461,0.864,10.547,7.309,11.953
		c12.702,2.774,25.236,1.9,36.939-4.061c10.897-5.55,15.086-14.791,13.042-26.906c-0.359-2.128-0.545-4.288-0.755-6.439
		c-2.074-21.204-2.761-42.496-3.616-63.766c-0.314-7.816-0.281-15.867,2.873-24.201c3.112,6.749,4.566,13.127,4.627,19.722
		c0.206,22.14,1.783,44.205,3.202,66.283c0.188,2.944,0.942,4.058,4.106,3.78c11.446-1.004,22.93-1.359,34.377-0.143
		c3.185,0.338,3.497-1.02,3.648-3.551c1.39-23.234,2.874-46.463,4.333-69.693c0.351-5.577,1.269-10.99,4.551-16.478
		c0.492,1.233,0.769,1.788,0.938,2.373c3.052,10.479,1.873,21.121,1.14,31.728c-1.376,19.914-2.48,39.856-4.421,59.718
		c-1.3,13.312,2.595,22.132,14.675,27.905c11.16,5.335,23.006,6.318,35.073,4.058c7.906-1.479,10.08-5.446,7.924-13.366
		c-2.07-7.603-5.929-14.42-9.558-21.302c-3.731-7.074-5.379-14.492-5.944-22.428c-1.524-21.416-1.862-42.877-2.601-64.317
		c-0.463-13.435-1.647-26.951,0.95-40.341c3.339,5.1,5.509,10.695,5.744,16.759c0.774,19.951,1.392,39.91,1.917,59.869
		c0.543,20.651,0.762,41.177,12.651,59.604c5.14,7.965,4.273,8.524,13.863,7.381c0.496-0.06,0.988-0.146,1.48-0.231
		c12.473-2.176,17.299-9.399,14.349-21.809c-3.066-12.904-11.701-20.96-23.493-25.946c-2.646-1.119-3.428-2.013-2.489-4.985
		c7.479-23.71,10.395-47.996,9.105-72.85c-0.938-18.063-4.162-35.639-9.723-52.829c-0.964-2.979-2.057-4.095-5.622-3.418
		c-11.968,2.272-24.135,2.539-36.297,2.456c-9.449-0.496-18.876-1.184-28.199-2.912c-1.916-0.354-4.123-0.024-3.469-3.269
		c0.603-2.985,2.547-1.975,4.213-1.695c28.236,4.737,56.168,3.708,83.74-4.332c1.612,0.157,2.856-0.451,3.989-1.8
		c-1.509-0.201-2.818-0.778-3.93,0.422c-6.006,0.766-11.979,0.009-17.913-0.663c-12.118-1.373-23.826-4.437-34.888-9.66
		c-2.543-1.201-5.33-2.682-4.988-6.131c0.328-3.322,3.151-4.432,5.869-5.389c1.09-0.384,2.221-0.728,3.361-0.881
		c7.411-1.001,14.847-1.833,22.243-2.929c19.75-2.926,39.321-6.571,57.723-14.801c14.641-6.548,26.89-15.776,34.679-30.204
		c1.24-2.298,1.82-4.415,0.614-7.306c-8.623,7.374-18.272,10.804-29.162,10.341c-8.757-0.372-16.587-3.143-22.844-9.603
		c-9.861-10.178-8.688-25.721,2.642-35.812c6.472-5.762,14.238-8.572,23.474-10.018c-17.197-13.883-35.632-23.358-55.785-29.616
		c-3.024-2.886-2.343-7.466-4.741-10.655c-8.138,5.154-17.438,4.833-23.574-0.745c-5.396-4.907-5.049-11.916,0.852-16.238
		c2.737-2.005,5.783-3.221,9.224-3.452c1.525-0.103,3.213,0.413,4.742-0.701c-0.537-1.098-0.915-2.019-1.415-2.868
		c-10.221-17.363-22.896-31.791-42.096-40.132c-9.582-4.163-19.101-7.014-29.357-7.919c-2.476-0.155-4.952-0.311-7.427-0.466
		c-28.466-1.294-56.371,12.544-64.461,23.134c12.049,1.419,20.564,7.799,26.35,18.294c4.625,8.391,7.397,17.431,9.853,26.588
		c5.421,20.219,9.587,40.793,17.006,60.448c5.187,13.742,9.227,27.755,10.469,42.466c2.688,31.824-11.57,57.717-44.909,66.631
		c-11.116,2.974-22.369,3.261-33.681,2.486c-3.69-0.252-5.341,0.912-6.552,4.234c-6.664,18.267-10.472,37.095-11.404,56.498
		c-0.212,4.403-0.031,8.824-0.031,13.236c-6.584-4.779-10.845-10.645-14.803-16.761c-6.835-10.563-10.87-22.352-14.954-34.119
		c-0.791-5.427-2.494-10.598-4.666-15.595c-1.417-3.26-3.404-6.631-7.576-5.869c-4.591,0.839-4.768,5.036-4.838,8.686
		C81.961,270.81,84.085,279.12,87.085,287.237z M158.875,247.149c4.312,0.148,11.235-0.673,18.073-2.234
		c23.895-5.458,38.884-20.46,42.8-43.184c2.362-13.709,0.563-27.237-3.329-40.409c-6.211-21.028-14.176-41.519-19.024-62.974
		c-2.966-13.129-6.074-26.266-11.568-38.64c-9.487-21.37-34.857-26.916-51.576-11.116c-6.623,6.259-10.582,14.446-14.18,22.726
		c-8.679,19.973-15.793,40.596-25.105,60.309c-5.245,11.102-11.496,21.73-14.492,33.853c-8.456,34.223,6.504,63.113,39.478,75.528
		C131.605,245.397,143.772,246.954,158.875,247.149z M351.998,224.661c7.434,5.969,11.271,13.486,16.632,19.789
		c7.49,8.806,18.988,8.639,26.189-0.366c8.119-10.154,6.557-27.396-3.189-35.947c-1.41-1.238-2.475-1.987-4.203-0.426
		C377.667,216.521,365.896,221.32,351.998,224.661z M360.555,149.959c9.703-0.285,25.305-6.338,31.446-12.124
		c1.786-1.683,4.237-3.469,2.891-6.257c-1.16-2.402-4.063-2.166-6.275-2.01c-11.514,0.808-21.962,4.686-31.146,11.701
		c-1.915,1.462-4.392,3.318-3.39,6.118C355.192,150.495,358.433,149.715,360.555,149.959z M298.469,68.823
		c-3.035-0.043-5.061,1.09-5.149,3.814c-0.09,2.759,2.027,4.115,4.546,4.123c2.242,0.007,4.241-1.06,4.446-3.657
		C302.541,70.202,300.663,69.09,298.469,68.823z"/>
	<path fill-rule="evenodd" clip-rule="evenodd" fill="#FDFDFD" d="M320.123,94.909c20.153,6.258,38.588,15.733,55.785,29.616
		c-9.235,1.446-17.002,4.256-23.474,10.018c-11.329,10.091-12.503,25.634-2.642,35.812c6.257,6.459,14.087,9.23,22.844,9.603
		c10.89,0.463,20.539-2.967,29.162-10.341c1.206,2.892,0.626,5.008-0.614,7.306c-7.789,14.428-20.038,23.656-34.679,30.204
		c-18.401,8.229-37.973,11.875-57.723,14.801c-7.396,1.097-14.832,1.928-22.243,2.929c-1.141,0.153-2.271,0.497-3.361,0.881
		c-2.718,0.957-5.541,2.067-5.869,5.389c-0.342,3.449,2.445,4.93,4.988,6.131c11.062,5.224,22.77,8.287,34.888,9.66
		c5.934,0.672,11.907,1.429,17.913,0.663c-0.02,0.459-0.039,0.919-0.06,1.378c-27.572,8.04-55.504,9.069-83.74,4.332
		c-1.666-0.279-3.61-1.29-4.213,1.695c-0.654,3.244,1.553,2.914,3.469,3.269c9.323,1.729,18.75,2.416,28.2,2.912
		c0.986,1.326,1.953,2.667,2.961,3.976c7.394,9.603,13.029,20.058,15.552,32.024c-2.598,13.39-1.413,26.906-0.95,40.341
		c0.738,21.44,1.076,42.901,2.601,64.317c0.565,7.936,2.213,15.354,5.944,22.428c3.629,6.882,7.487,13.699,9.558,21.302
		c2.156,7.92-0.018,11.887-7.924,13.366c-12.067,2.261-23.913,1.277-35.073-4.058c-12.08-5.773-15.975-14.594-14.675-27.905
		c1.94-19.861,3.045-39.804,4.421-59.718c0.733-10.606,1.912-21.249-1.14-31.728c-0.17-0.585-0.446-1.14-0.938-2.373
		c-3.282,5.487-4.2,10.9-4.551,16.478c-1.459,23.23-2.943,46.459-4.333,69.693c-0.151,2.531-0.464,3.889-3.648,3.551
		c-11.447-1.217-22.932-0.861-34.377,0.143c-3.164,0.277-3.917-0.836-4.106-3.78c-1.418-22.078-2.996-44.144-3.202-66.283
		c-0.062-6.595-1.516-12.973-4.627-19.722c-3.154,8.334-3.187,16.385-2.873,24.201c0.854,21.27,1.542,42.562,3.616,63.766
		c0.21,2.151,0.396,4.312,0.755,6.439c2.043,12.115-2.146,21.356-13.042,26.906c-11.704,5.961-24.237,6.835-36.939,4.061
		c-6.444-1.406-8.646-5.492-7.309-11.953c1.293-6.251,3.814-12.101,6.907-17.571c5.547-9.808,8.081-20.26,8.513-31.409
		c0.985-25.432,2.664-50.84,2.708-76.305c0.009-5.174-0.608-10.287-2.337-15.216c-0.374-1.064-0.352-2.479-2.146-1.886
		c-0.385-4.035,0.369-7.98,1.17-11.88c4.36-21.257,19.749-35.266,43.207-31.231c5.973,1.026,11.909,0.851,17.879-0.098
		c19.962-3.168,34.609-19.622,24.131-41.771c-4.61-9.747-7.367-20.276-9.873-30.828c-5.817-24.478-1.62-45.866,18.204-62.919
		c3.382-2.908,6.37-6.371,9.103-9.915c4.77-6.185,6.723-13.185,5.368-21.084c-1.795-10.478-6.21-19.966-10.693-29.429
		c-8.776-18.527-19.701-35.845-30.264-53.363c2.476,0.155,4.952,0.311,7.428,0.466c12.184,20.929,25.094,41.395,38.958,61.256
		c2.591,3.712,5.479,7.139,9.361,9.512C293.754,90.105,306.65,93.444,320.123,94.909z"/>
	<path fill-rule="evenodd" clip-rule="evenodd" fill="#A77E2C" d="M158.875,247.149c-15.102-0.195-27.27-1.752-38.922-6.141
		c-32.974-12.415-47.933-41.306-39.478-75.528c2.996-12.123,9.247-22.751,14.492-33.853c9.312-19.712,16.426-40.335,25.105-60.309
		c3.598-8.28,7.557-16.467,14.18-22.726c16.719-15.799,42.088-10.253,51.576,11.116c5.494,12.374,8.602,25.51,11.568,38.64
		c4.848,21.455,12.813,41.946,19.024,62.974c3.891,13.172,5.691,26.7,3.329,40.409c-3.917,22.724-18.906,37.726-42.8,43.184
		C170.109,246.477,163.187,247.298,158.875,247.149z M209.688,171.903c-17.848,29.347-45.306,46.665-75.263,61.139
		c9.91,0.817,19.363,2.473,29.192,1.164c10.078-1.343,19.525-3.735,27.994-9.309C207.412,214.498,213.5,193.512,209.688,171.903z"/>
	<path fill-rule="evenodd" clip-rule="evenodd" fill="#A77E2C" d="M226.33,11.733c10.563,17.519,21.488,34.836,30.264,53.363
		c4.483,9.463,8.898,18.952,10.693,29.429c1.354,7.899-0.599,14.899-5.368,21.084c-2.732,3.544-5.721,7.007-9.103,9.915
		c-19.824,17.053-24.021,38.441-18.204,62.919c2.506,10.552,5.263,21.082,9.873,30.828c10.478,22.148-4.169,38.603-24.131,41.771
		c-5.971,0.948-11.907,1.124-17.879,0.098c-23.458-4.034-38.847,9.975-43.207,31.231c-0.801,3.899-1.555,7.845-1.17,11.88
		c-4.669,19.779-3.146,39.987-4.229,60.02c-0.789,14.599-0.775,29.241-2.51,43.796c-0.692,5.806-3.562,10.675-5.807,15.828
		c-1.592,3.655-3.943,7.072-4.964,10.863c-1.452,5.386-4.406,7.231-9.676,6.188c-2.603-0.515-5.313-0.55-7.878-1.185
		c-8.814-2.181-12.734-9.915-10.73-20.525c1.601-8.48,6.69-14.648,13.153-19.779c3.453-2.742,6.799-5.837,11.258-7.026
		c2.323-0.621,2.793-1.92,1.861-4.088c-2.434-5.664-3.651-11.68-4.861-17.685c-0.486-2.414-2.052-4.083-3.55-5.88
		c-19.266-23.119-33.716-48.919-43.08-77.543c3.899-4.264,7.25-9.063,12.127-12.366c4.084,11.768,8.119,23.557,14.954,34.119
		c3.958,6.116,8.219,11.981,14.803,16.761c0-4.412-0.181-8.833,0.031-13.236c0.933-19.403,4.74-38.231,11.404-56.498
		c1.211-3.322,2.861-4.486,6.552-4.234c11.312,0.774,22.565,0.487,33.681-2.486c33.339-8.914,47.597-34.807,44.909-66.631
		c-1.242-14.711-5.282-28.724-10.469-42.466c-7.419-19.655-11.585-40.229-17.006-60.448c-2.455-9.158-5.227-18.198-9.853-26.588
		c-5.786-10.496-14.301-16.875-26.35-18.294C169.959,24.278,197.864,10.439,226.33,11.733z M228.54,100.646
		c5.491,0.067,11.398-1.977,14.772-5.113c5.79-5.381,5.459-12.691-0.794-17.532c-7.251-5.613-20.468-5.5-27.635,0.238
		c-6.207,4.969-6.153,13.024,0.121,17.931C218.98,99.281,223.679,100.209,228.54,100.646z"/>
	<path fill-rule="evenodd" clip-rule="evenodd" fill="#A67E2C" d="M297.268,297.167c-2.522-11.967-8.158-22.422-15.552-32.024
		c-1.008-1.309-1.975-2.649-2.961-3.976c12.161,0.083,24.328-0.184,36.296-2.456c3.565-0.677,4.658,0.439,5.622,3.418
		c5.561,17.19,8.785,34.767,9.723,52.829c1.289,24.854-1.626,49.14-9.105,72.85c-0.938,2.973-0.156,3.866,2.489,4.985
		c11.792,4.986,20.427,13.042,23.493,25.946c2.95,12.409-1.876,19.633-14.349,21.809c-0.492,0.086-0.984,0.172-1.48,0.231
		c-9.59,1.144-8.724,0.584-13.863-7.381c-11.89-18.427-12.108-38.952-12.651-59.604c-0.525-19.959-1.143-39.918-1.917-59.869
		C302.776,307.862,300.606,302.267,297.268,297.167z"/>
	<path fill-rule="evenodd" clip-rule="evenodd" fill="#A77F2D" d="M320.123,94.909c-13.473-1.465-26.369-4.803-38.046-11.942
		c-3.882-2.373-6.771-5.799-9.361-9.512c-13.864-19.861-26.774-40.327-38.958-61.256c10.256,0.905,19.774,3.756,29.356,7.919
		c19.2,8.341,31.875,22.769,42.096,40.132c0.5,0.849,0.878,1.77,1.415,2.868c-1.529,1.114-3.217,0.599-4.742,0.701
		c-3.44,0.231-6.486,1.447-9.224,3.452c-5.9,4.323-6.248,11.332-0.852,16.238c6.137,5.577,15.437,5.898,23.574,0.745
		C317.78,87.442,317.099,92.023,320.123,94.909z"/>
	<path fill-rule="evenodd" clip-rule="evenodd" fill="#EE6121" d="M351.998,224.661c13.898-3.34,25.669-8.14,35.429-16.951
		c1.729-1.561,2.793-0.812,4.203,0.426c9.746,8.551,11.309,25.793,3.189,35.947c-7.201,9.005-18.699,9.172-26.189,0.366
		C363.269,238.146,359.432,230.63,351.998,224.661z M377.031,218.989c-0.063,0.851,0.171,1.57,0.92,2.059
		c4.582,7.152,9.643,14.025,12.794,22.014c-1.383-8.994-3.832-17.38-12.559-22.217c-0.082-0.803-0.317-1.515-1.128-1.879
		c-0.358-0.252-0.717-0.503-1.075-0.754c-0.084,0.128-0.169,0.256-0.254,0.384C376.163,218.726,376.597,218.858,377.031,218.989z"/>
	<path fill-rule="evenodd" clip-rule="evenodd" fill="#F9F9F9" d="M360.555,149.959c-2.122-0.244-5.362,0.536-6.475-2.573
		c-1.002-2.8,1.475-4.656,3.39-6.118c9.185-7.015,19.633-10.893,31.146-11.701c2.212-0.155,5.115-0.392,6.275,2.01
		c1.347,2.789-1.104,4.575-2.891,6.257C385.859,143.621,370.258,149.674,360.555,149.959z"/>
	<path fill-rule="evenodd" clip-rule="evenodd" fill="#F9F9F9" d="M99.211,274.87c-4.877,3.303-8.229,8.103-12.127,12.366
		c-2.999-8.116-5.123-16.427-4.953-25.145c0.071-3.649,0.247-7.847,4.838-8.686c4.171-0.762,6.159,2.609,7.576,5.869
		C96.718,264.272,98.42,269.443,99.211,274.87z"/>
	<path fill-rule="evenodd" clip-rule="evenodd" fill="#EEEEEE" d="M298.469,68.823c2.194,0.268,4.072,1.379,3.843,4.28
		c-0.205,2.597-2.204,3.664-4.446,3.657c-2.519-0.008-4.636-1.364-4.546-4.123C293.408,69.913,295.434,68.78,298.469,68.823z"/>
	<path fill-rule="evenodd" clip-rule="evenodd" fill="#5E5E5E" d="M335.039,248.959c0.021-0.459,0.04-0.919,0.06-1.378
		c1.111-1.2,2.421-0.623,3.93-0.422C337.896,248.508,336.651,249.116,335.039,248.959z"/>
	<path fill-rule="evenodd" clip-rule="evenodd" fill="#886326" d="M209.688,171.903c3.811,21.609-2.276,42.595-18.076,52.994
		c-8.469,5.574-17.917,7.966-27.994,9.309c-9.829,1.309-19.283-0.347-29.192-1.164C164.382,218.568,191.841,201.25,209.688,171.903z
		"/>
	<path fill-rule="evenodd" clip-rule="evenodd" fill="#040301" d="M228.538,100.651c-4.859-0.441-9.558-1.37-13.534-4.48
		c-6.274-4.907-6.328-12.962-0.121-17.931c7.167-5.738,20.384-5.851,27.635-0.238c6.253,4.84,6.584,12.151,0.794,17.532
		C239.938,98.669,234.03,100.713,228.538,100.651z M222.632,86.579c2.74-0.43,5.382-1.246,5.222-4.65
		c-0.142-3-2.43-4.089-5.162-4.104c-2.896-0.015-5.455,0.997-5.511,4.275C217.125,85.433,219.823,86.233,222.632,86.579z"/>
	<path fill-rule="evenodd" clip-rule="evenodd" fill="#B04A23" d="M378.191,220.841c8.722,4.84,11.171,13.227,12.554,22.221
		c-3.151-7.988-8.212-14.861-12.793-22.015C377.953,221.046,378.191,220.841,378.191,220.841z"/>
	<path fill-rule="evenodd" clip-rule="evenodd" fill="#B04A23" d="M377.03,218.989c-0.434-0.131-0.867-0.263-1.301-0.394
		c0.085-0.128,0.17-0.256,0.254-0.384c0.358,0.251,0.717,0.502,1.075,0.754L377.03,218.989z"/>
	<path fill-rule="evenodd" clip-rule="evenodd" fill="#B04A23" d="M377.059,218.965c0.811,0.365,1.046,1.077,1.131,1.877
		c0.002-0.002-0.236,0.203-0.237,0.204c-0.75-0.488-0.984-1.207-0.921-2.058C377.03,218.989,377.059,218.965,377.059,218.965z"/>
	<path fill-rule="evenodd" clip-rule="evenodd" fill="#EBEBEB" d="M222.632,86.579c-2.809-0.346-5.507-1.146-5.45-4.479
		c0.056-3.278,2.615-4.29,5.511-4.275c2.731,0.015,5.02,1.104,5.162,4.104C228.014,85.333,225.372,86.149,222.632,86.579z"/>
</g>
</svg>
