<?xml version="1.0" encoding="utf-8"?>
<!-- Generator: Adobe Illustrator 16.0.2, SVG Export Plug-In . SVG Version: 6.00 Build 0)  -->
<!DOCTYPE svg PUBLIC "-//W3C//DTD SVG 1.1//EN" "http://www.w3.org/Graphics/SVG/1.1/DTD/svg11.dtd">
<svg version="1.1"
	 id="svg2" xmlns:sodipodi="http://sodipodi.sourceforge.net/DTD/sodipodi-0.dtd" xmlns:inkscape="http://www.inkscape.org/namespaces/inkscape" xmlns:dc="http://purl.org/dc/elements/1.1/" xmlns:rdf="http://www.w3.org/1999/02/22-rdf-syntax-ns#" xmlns:svg="http://www.w3.org/2000/svg" xmlns:cc="http://creativecommons.org/ns#" inkscape:output_extension="org.inkscape.output.svg.inkscape" inkscape:export-ydpi="90.000000" inkscape:export-filename="/home/tigert/My Downloads/go-home.png" inkscape:export-xdpi="90.000000" sodipodi:version="0.32" inkscape:version="0.45.17116" sodipodi:docbase="/home/jimmac/src/cvs/tango-icon-theme/scalable/actions" sodipodi:docname="go-home.svg"
	 xmlns="http://www.w3.org/2000/svg" xmlns:xlink="http://www.w3.org/1999/xlink" x="0px" y="0px" width="48px" height="48px"
	 viewBox="0 0 48 48" enable-background="new 0 0 48 48" xml:space="preserve">
<sodipodi:namedview  fill="#555753" stroke="#a40000" showguides="true" bordercolor="#666666" inkscape:cx="25.234802" pagecolor="#ffffff" borderopacity="0.21568627" inkscape:cy="-2.3755359" showgrid="false" id="base" inkscape:zoom="1" inkscape:guide-bbox="true" inkscape:showpageshadow="false" inkscape:current-layer="svg2" inkscape:pageopacity="0.0" inkscape:pageshadow="2" inkscape:window-width="872" inkscape:window-height="691" inkscape:window-x="198" inkscape:window-y="39">
	</sodipodi:namedview>
<g id="g5022" transform="matrix(2.158196e-2,0,0,1.859457e-2,43.12251,41.63767)">
	
		<linearGradient id="rect4173_1_" gradientUnits="userSpaceOnUse" x1="219308.2969" y1="-544892.625" x2="219308.2969" y2="-545135.625" gradientTransform="matrix(0.0599 0 0 -0.0366 -14025.9746 -20093.7539)">
		<stop  offset="0" style="stop-color:#000000;stop-opacity:0"/>
		<stop  offset="0.5" style="stop-color:#000000"/>
		<stop  offset="1" style="stop-color:#000000;stop-opacity:0"/>
	</linearGradient>
	
		<rect id="rect4173" x="-1559.253" y="-150.67" opacity="0.4021" fill="url(#rect4173_1_)" enable-background="new    " width="1339.64" height="478.329"/>
	
		<radialGradient id="path5058_1_" cx="230622.75" cy="-551350" r="117.1543" gradientTransform="matrix(0.0599 0 0 -0.0366 -14025.4316 -20093.7539)" gradientUnits="userSpaceOnUse">
		<stop  offset="0" style="stop-color:#000000"/>
		<stop  offset="1" style="stop-color:#000000;stop-opacity:0"/>
	</radialGradient>
	<path id="path5058" sodipodi:nodetypes="cccc" opacity="0.4021" fill="url(#path5058_1_)" enable-background="new    " d="
		M-219.613-150.672v478.33c142.896,0.893,345.386-107.188,345.386-239.217C125.772-43.535-33.64-150.672-219.613-150.672z"/>
	
		<radialGradient id="path5018_1_" cx="-204879.3594" cy="-551350" r="117.1615" gradientTransform="matrix(-0.0599 0 0 -0.0366 -13839.9873 -20093.7539)" gradientUnits="userSpaceOnUse">
		<stop  offset="0" style="stop-color:#000000"/>
		<stop  offset="1" style="stop-color:#000000;stop-opacity:0"/>
	</radialGradient>
	<path id="path5018" sodipodi:nodetypes="cccc" opacity="0.4021" fill="url(#path5018_1_)" enable-background="new    " d="
		M-1559.253-150.672v478.33c-142.873,0.893-345.385-107.188-345.385-239.217C-1904.638-43.535-1745.203-150.672-1559.253-150.672z"
		/>
</g>
<linearGradient id="rect1512_1_" gradientUnits="userSpaceOnUse" x1="583.3193" y1="-1976.3564" x2="545.3649" y2="-1768.0193" gradientTransform="matrix(0.3369 0 0 -0.1669 -168.8536 -285.9604)">
	<stop  offset="0" style="stop-color:#CCCCCC"/>
	<stop  offset="0.9831" style="stop-color:#FFFFFF"/>
</linearGradient>
<path id="rect1512" sodipodi:nodetypes="ccccccccc" fill="url(#rect1512_1_)" stroke="#757575" d="M21.62,8.184h5.958
	c0.84,0,13.886,15.435,13.886,16.34L41.02,43.02c0,0.905-0.676,1.634-1.516,1.634H8.047c-0.84,0-1.516-0.729-1.516-1.634
	l0.057-18.497C6.588,23.619,20.78,8.184,21.62,8.184z"/>
<path id="path5" fill="none" d="M46.963,45.735H1.639V0.411h45.324V45.735z"/>
<linearGradient id="path2327_1_" gradientUnits="userSpaceOnUse" x1="49.9219" y1="47.9834" x2="50.0019" y2="41.3862" gradientTransform="matrix(0.8988 0 0 -1.0719 -27.9234 77.272)">
	<stop  offset="0" style="stop-color:#000000;stop-opacity:0.1856"/>
	<stop  offset="1" style="stop-color:#FFFFFF"/>
</linearGradient>
<path id="path2327" sodipodi:nodetypes="ccccc" fill="url(#path2327_1_)" d="M23,29l-0.046,15.091H11.111L11,29H23z"/>
<path id="path2357" sodipodi:nodetypes="ccccccccc" opacity="0.3125" fill="none" stroke="#FFFFFF" enable-background="new    " d="
	M21.78,9.406h5.56c0.783,0,13,14.399,13,15.245l-0.347,18.212c0,0.459-0.144,0.653-0.513,0.653L8.094,43.529
	c-0.369,0-0.584-0.08-0.584-0.453L7.725,24.65C7.725,23.805,20.997,9.406,21.78,9.406z"/>
<radialGradient id="path23_1_" cx="-7.4087" cy="132.4433" r="15.242" gradientTransform="matrix(1.1253 0 0 -1.3401 32.5561 193.0149)" gradientUnits="userSpaceOnUse">
	<stop  offset="0" style="stop-color:#575757"/>
	<stop  offset="1" style="stop-color:#575757;stop-opacity:0"/>
</radialGradient>
<path id="path23" sodipodi:nodetypes="ccccccc" opacity="0.2" fill="url(#path23_1_)" enable-background="new    " d="M7.208,27.943
	l-0.054,2.595l18.368-13.179l15.286,11.155l0.071-0.313l-16.37-15.904L7.208,27.943z"/>
<linearGradient id="path188_1_" gradientUnits="userSpaceOnUse" x1="50.9883" y1="50.4824" x2="52.1784" y2="38.3892" gradientTransform="matrix(0.8888 0 0 -1.0893 -28.7735 85.198)">
	<stop  offset="0" style="stop-color:#7C7E79"/>
	<stop  offset="0.1724" style="stop-color:#848681"/>
	<stop  offset="1" style="stop-color:#898C86"/>
</linearGradient>
<path id="path188" sodipodi:nodetypes="ccccc" fill="url(#path188_1_)" d="M22,30v14.091h-9.811L12,30H22z"/>
<radialGradient id="path2315_1_" cx="-11.1602" cy="5.4184" r="1.0823" gradientTransform="matrix(1.1253 0 0 -0.9827 32.1342 42.8347)" gradientUnits="userSpaceOnUse">
	<stop  offset="0" style="stop-color:#000000"/>
	<stop  offset="1" style="stop-color:#000000;stop-opacity:0"/>
</radialGradient>
<path id="path2315" opacity="0.4091" fill="url(#path2315_1_)" enable-background="new    " d="M19.577,36.447
	c0.673,0,1.217,0.475,1.217,1.059c0,0.59-0.544,1.068-1.217,1.068c-0.672,0-1.218-0.479-1.218-1.068
	C18.359,36.922,18.905,36.447,19.577,36.447z"/>
<radialGradient id="path217_1_" cx="-11.6177" cy="6.0654" r="1.0818" gradientTransform="matrix(1.1253 0 0 -0.9827 32.1342 42.6686)" gradientUnits="userSpaceOnUse">
	<stop  offset="0" style="stop-color:#EDD400"/>
	<stop  offset="1" style="stop-color:#998800"/>
</radialGradient>
<path id="path217" fill="url(#path217_1_)" d="M19.462,35.932c0.673,0,1.216,0.475,1.216,1.059c0,0.59-0.543,1.068-1.216,1.068
	c-0.672,0-1.219-0.479-1.219-1.068C18.244,36.406,18.79,35.932,19.462,35.932z"/>
<linearGradient id="path342_1_" gradientUnits="userSpaceOnUse" x1="577.8838" y1="-693.7388" x2="577.8838" y2="-664.1837" gradientTransform="matrix(0.3541 0 0 -0.3541 -180.19 -222.6762)">
	<stop  offset="0" style="stop-color:#FFFFFF"/>
	<stop  offset="0.8539" style="stop-color:#FF6200"/>
	<stop  offset="1" style="stop-color:#F25D00"/>
</linearGradient>
<path id="path342" sodipodi:nodetypes="ccccccccccccc" fill="url(#path342_1_)" d="M24.448,11.56l18.927,17.169l0.494,0.393
	l0.404-0.172L43.9,28.187l-0.277-0.223L24.448,12.393L5.058,28.136l-0.237,0.144l-0.217,0.707l0.433,0.129l0.385-0.308L24.448,11.56
	z"/>
<path id="path362" sodipodi:nodetypes="cccccccccc" fill="#EF2929" stroke="#A40000" d="M24.33,2.271L2.448,20.373l-0.625,7.167
	l2,2.064c0,0,20.407-17.158,20.624-17.329L44.08,29.818l1.898-2.324l-1.615-7.111L24.448,2.167L24.33,2.271z"/>
<radialGradient id="path1536_1_" cx="-205.3364" cy="307.9189" r="8.2448" gradientTransform="matrix(4.1001 0 0 -4.2013 847.3715 1316.7987)" gradientUnits="userSpaceOnUse">
	<stop  offset="0" style="stop-color:#FFFFFF"/>
	<stop  offset="1" style="stop-color:#FFFFFF;stop-opacity:0"/>
</radialGradient>
<path id="path1536" sodipodi:nodetypes="ccccc" opacity="0.4091" fill="url(#path1536_1_)" enable-background="new    " d="
	M2.841,20.613L2.55,27.236L24.369,8.98l-0.07-5.893L2.841,20.613z"/>
<radialGradient id="path2337_1_" cx="-201.1885" cy="489.4179" r="8.2394" gradientTransform="matrix(4.1001 0 0 4.2013 867.5902 -2032.9863)" gradientUnits="userSpaceOnUse">
	<stop  offset="0" style="stop-color:#000000"/>
	<stop  offset="1" style="stop-color:#000000;stop-opacity:0"/>
</radialGradient>
<path id="path2337" sodipodi:nodetypes="ccccc" opacity="0.1364" fill="url(#path2337_1_)" enable-background="new    " d="
	M24.484,8.751l0.099-5.841l19.329,17.652l1.492,6.5L24.484,8.751z"/>
<path id="rect2361" sodipodi:nodetypes="ccccccccc" opacity="0.3182" fill="none" stroke="#FFFFFF" stroke-width="1" enable-background="new    " d="
	M27.102,27.72h9.041c0.77,0,1.391,0.62,1.391,1.392l-0.008,9.078c0,0.771-0.597,1.267-1.367,1.267h-9.057
	c-0.77,0-1.391-0.62-1.391-1.392v-8.953C25.711,28.34,26.332,27.72,27.102,27.72z"/>
<path id="rect3263" fill="#3465A4" stroke="#757575" stroke-width="1" d="M26.889,28.514h9.239c0.21,0,0.382,0.172,0.382,0.382v9.2
	c0,0.211-0.172,0.381-0.382,0.381h-9.239c-0.21,0-0.381-0.17-0.381-0.381v-9.2C26.508,28.686,26.679,28.514,26.889,28.514z"/>
<radialGradient id="rect2363_1_" cx="-176.5605" cy="272.0869" r="4.0007" gradientTransform="matrix(3.7515 0 0 -3.1478 692.5765 886.597)" gradientUnits="userSpaceOnUse">
	<stop  offset="0" style="stop-color:#FFFFFF"/>
	<stop  offset="1" style="stop-color:#FFFFFF;stop-opacity:0"/>
</radialGradient>
<path id="rect2363" sodipodi:nodetypes="ccccc" opacity="0.3977" fill="url(#rect2363_1_)" enable-background="new    " d="
	M27.107,34.408c3.617,0.331,5.527-1.445,8.867-1.553L36,29.006L27.088,29L27.107,34.408z"/>
<g id="g1879" transform="matrix(0.844217,0,0,0.844217,-10.3995,-12.36372)">
	
		<linearGradient id="path2086_1_" gradientUnits="userSpaceOnUse" x1="538.1976" y1="-535.3444" x2="549.2141" y2="-556.8454" gradientTransform="matrix(0.4054 0 0 -0.4198 -174.331 -201.3078)">
		<stop  offset="0" style="stop-color:#CAD0C6"/>
		<stop  offset="0.5" style="stop-color:#EAECE9"/>
		<stop  offset="1" style="stop-color:#C5CBC0"/>
	</linearGradient>
	
		<linearGradient id="path2086_2_" gradientUnits="userSpaceOnUse" x1="542.1294" y1="-549.3898" x2="537.5389" y2="-543.9397" gradientTransform="matrix(0.4054 0 0 -0.4198 -174.331 -201.3078)">
		<stop  offset="0" style="stop-color:#6F716D"/>
		<stop  offset="1" style="stop-color:#9EA09C"/>
	</linearGradient>
	
		<path id="path2086" sodipodi:nodetypes="cczcccczccc" fill="url(#path2086_1_)" stroke="url(#path2086_2_)" stroke-width="1.1845" d="
		M39.363,38.627v-5.846c0-5.989,4.013-8.718,9.981-8.643c5.998,0.075,9.961,2.68,9.961,8.737l-0.012,5.751h-3.66v-4.245
		c-0.099-1.473,0.409-6.41-6.248-6.41c-6.703,0-6.309,4.954-6.285,6.44v4.215H39.363z"/>
	
		<linearGradient id="rect1314_1_" gradientUnits="userSpaceOnUse" x1="501.9364" y1="-521.3198" x2="554.2682" y2="-521.3198" gradientTransform="matrix(0.4139 0 0 -0.4511 -170.927 -187.4601)">
		<stop  offset="0" style="stop-color:#FFF7B0"/>
		<stop  offset="0.21" style="stop-color:#FFEC41"/>
		<stop  offset="0.84" style="stop-color:#E2CC00"/>
		<stop  offset="1" style="stop-color:#C3AF00"/>
	</linearGradient>
	
		<linearGradient id="rect1314_2_" gradientUnits="userSpaceOnUse" x1="549.4286" y1="-531.3854" x2="514.6814" y2="-507.173" gradientTransform="matrix(0.4139 0 0 -0.4511 -170.927 -186.9084)">
		<stop  offset="0" style="stop-color:#7D6400"/>
		<stop  offset="1" style="stop-color:#BE9700"/>
	</linearGradient>
	
		<path id="rect1314" fill="url(#rect1314_1_)" stroke="url(#rect1314_2_)" stroke-width="1.1845" stroke-linecap="round" stroke-linejoin="round" d="
		M40.703,38.706h18.147c2.235,0,4.048,1.578,4.048,3.523v10.955c0,1.947-1.813,3.525-4.048,3.525H40.703
		c-2.237,0-4.049-1.578-4.049-3.525V42.229C36.654,40.284,38.466,38.706,40.703,38.706z"/>
	
		<linearGradient id="rect6903_1_" gradientUnits="userSpaceOnUse" x1="576.9978" y1="-641.3391" x2="607.211" y2="-658.1719" gradientTransform="matrix(0.3828 0 0 -0.3968 -180.4013 -212.1679)">
		<stop  offset="0" style="stop-color:#FFFFFF"/>
		<stop  offset="1" style="stop-color:#FFFFFF;stop-opacity:0.4948"/>
	</linearGradient>
	
		<path id="rect6903" fill="none" stroke="url(#rect6903_1_)" stroke-width="1.1845" stroke-linecap="round" stroke-linejoin="round" stroke-opacity="0.6011" d="
		M40.525,40.471h18.508c1.219,0,2.202,0.987,2.202,2.201v10.038c0,1.217-0.983,2.2-2.202,2.2H40.525c-1.216,0-2.202-0.983-2.202-2.2
		V42.672C38.323,41.458,39.309,40.471,40.525,40.471z"/>
	
		<linearGradient id="rect11343_1_" gradientUnits="userSpaceOnUse" x1="112.3754" y1="-632.3185" x2="117.9456" y2="-627.8472" gradientTransform="matrix(0.8277 0 0 -0.3899 -44.0499 -217.0184)">
		<stop  offset="0" style="stop-color:#FFFFFF"/>
		<stop  offset="1" style="stop-color:#FFFFFF;stop-opacity:0"/>
	</linearGradient>
	<path id="rect11343" sodipodi:nodetypes="ccsccc" fill="url(#rect11343_1_)" d="M40.03,33.105c0.199-4.433,1.432-7.772,9.653-8.055
		c-5.323,0.75-8.219,2.304-8.219,6.939l-0.134,5.746h-1.3V33.105z"/>
	
		<linearGradient id="rect1345_1_" gradientUnits="userSpaceOnUse" x1="109.1064" y1="-584.7869" x2="109.5331" y2="-575.1215" gradientTransform="matrix(0.8277 0 0 -0.4139 -33.2648 -205.346)">
		<stop  offset="0" style="stop-color:#FFFFFF"/>
		<stop  offset="1" style="stop-color:#FFFFFF;stop-opacity:0"/>
	</linearGradient>
	<rect id="rect1345" x="56.528" y="30.268" fill="url(#rect1345_1_)" width="1.501" height="7.499"/>
</g>
</svg>
