<?xml version="1.0" encoding="utf-8"?>
<!-- Generator: Adobe Illustrator 16.0.2, SVG Export Plug-In . SVG Version: 6.00 Build 0)  -->
<!DOCTYPE svg PUBLIC "-//W3C//DTD SVG 1.1//EN" "http://www.w3.org/Graphics/SVG/1.1/DTD/svg11.dtd">
<svg version="1.1" id="Layer_0_xA0_Image_1_" xmlns="http://www.w3.org/2000/svg" xmlns:xlink="http://www.w3.org/1999/xlink"
	 x="0px" y="0px" width="350px" height="350px" viewBox="0 0 350 350" enable-background="new 0 0 350 350" xml:space="preserve">
<g>
	<path fill-rule="evenodd" clip-rule="evenodd" fill="#016991" d="M327.829,134.143c0,50.553-0.033,100.349,0.079,150.145
		c0.007,3.216-1.823,3.805-4.062,4.617c-43.265,15.711-86.522,31.442-129.78,47.171c-3.588,1.305-7.252,2.443-10.735,3.987
		c-3.306,1.465-3.842,0.33-3.838-2.832c0.071-52.631,0.049-105.262,0.071-157.894c0-1.123-0.11-2.762,0.531-3.262
		c1.309-1.02,2.587,0.47,3.365,1.282c5.886,6.148,11.967,5.032,19.339,2.276c40.163-15.013,80.528-29.486,120.826-44.138
		C324.848,135.052,326.103,134.695,327.829,134.143z M224.832,258.044c18.685-6.81,36.72-13.453,54.824-19.902
		c2.729-0.973,2.34-2.803,2.341-4.737c0.01-18.638-0.045-37.276,0.057-55.914c0.017-3.053-0.284-4.192-3.775-2.888
		c-16.781,6.272-33.646,12.324-50.504,18.391c-1.911,0.688-3.006,1.462-2.995,3.802C224.87,216.922,224.832,237.049,224.832,258.044
		z"/>
	<path fill-rule="evenodd" clip-rule="evenodd" fill="#00ADEE" d="M172.152,255.512c0,26.99-0.074,53.981,0.08,80.972
		c0.023,3.97-0.652,4.828-4.572,3.311c-12.084-4.676-24.245-9.169-36.505-13.357c-3.508-1.198-4.392-2.887-4.383-6.389
		c0.115-45.818-0.009-91.637,0.197-137.453c0.023-5.059-1.147-7.533-6.253-9.229c-15.453-5.132-30.675-10.959-45.992-16.502
		c-5.299-1.917-5.309-1.898-5.309,3.954c-0.001,45.651,0.001,91.303-0.002,136.954c0,6.092-0.024,6.122-5.546,4.124
		c-12.036-4.355-24.034-8.819-36.107-13.068c-2.737-0.963-3.835-2.219-3.829-5.298c0.104-54.815,0.117-109.63-0.016-164.445
		c-0.009-3.781,1.35-4.262,4.579-4.136c21.453,0.835,42.913,1.508,64.37,2.238c3.231,0.11,6.031,1.154,8.746,3.06
		c22.346,15.684,44.748,31.289,67.225,46.786c2.492,1.719,3.396,3.516,3.384,6.507C172.106,200.863,172.151,228.188,172.152,255.512
		z"/>
	<path fill-rule="evenodd" clip-rule="evenodd" fill="#016991" d="M119.456,251.549c0,21.807-0.097,43.613,0.081,65.418
		c0.036,4.362-1.057,4.904-4.976,3.402c-11.305-4.333-22.714-8.404-34.158-12.357c-2.857-0.987-3.631-2.458-3.625-5.368
		c0.092-44.277,0.091-88.556,0.009-132.834c-0.006-3.368,0.482-4.391,4.083-3.013c11.482,4.396,23.055,8.564,34.674,12.587
		c3.032,1.05,4.003,2.572,3.983,5.749C119.393,207.271,119.456,229.41,119.456,251.549z M111.989,250.058
		c0-2.152,0.031-4.306-0.009-6.457c-0.039-2.135-1.103-3.453-3.292-3.558c-2.137-0.103-3.646,1-3.715,3.125
		c-0.152,4.627-0.148,9.269,0.036,13.895c0.083,2.106,1.542,3.222,3.741,3.048c2.194-0.174,3.234-1.437,3.244-3.595
		C112.002,254.363,111.995,252.21,111.989,250.058z"/>
	<path fill-rule="evenodd" clip-rule="evenodd" fill="#EC1E26" d="M213.892,56.713c7.993-2.95,15.594-5.741,23.181-8.568
		c1.772-0.66,3.147-0.076,4.608,0.943c26.847,18.731,53.719,37.428,81.329,56.649c-5.024,2.471-8.141,6.59-12.292,9.459
		c-4.446,3.073-9.498,2.901-13.623,0.061c-27.646-19.034-55.106-38.335-82.622-57.557C214.352,57.615,214.305,57.425,213.892,56.713
		z"/>
	<path fill-rule="evenodd" clip-rule="evenodd" fill="#EC1E26" d="M182.217,68.212c8.52-3.112,16.313-5.918,24.066-8.832
		c1.469-0.552,2.501-0.183,3.666,0.633c27.115,18.962,54.244,37.904,81.365,56.857c0.12,0.084,0.157,0.288,0.39,0.74
		c-3.14,1.421-5.696,3.66-8.238,5.981c-6.422,5.865-13.083,6.149-20.283,1.139c-25.802-17.953-51.606-35.9-77.406-53.856
		C184.831,70.217,183.931,69.497,182.217,68.212z"/>
	<path fill-rule="evenodd" clip-rule="evenodd" fill="#EC1E26" d="M119.844,90.922c8.745-3.206,16.369-5.968,23.963-8.808
		c1.822-0.682,3.172-0.023,4.604,0.976c26.896,18.747,53.805,37.475,81.688,56.887c-5.104,2.012-7.909,5.992-11.788,8.712
		c-4.796,3.362-10.571,3.011-14.633,0.262C175.849,130.116,148.371,110.76,119.844,90.922z"/>
	<path fill-rule="evenodd" clip-rule="evenodd" fill="#EC1E26" d="M260.585,128.691c-2.85,1.693-5.48,3.667-7.938,5.948
		c-6.592,6.116-13.246,6.498-20.677,1.336c-25.541-17.747-51.063-35.521-76.585-53.294c-1.199-0.835-2.339-1.756-4.191-3.155
		c8.631-3.156,16.631-6.055,24.605-9.021c1.37-0.511,2.24,0.253,3.16,0.895c27.142,18.936,54.271,37.888,81.399,56.844
		C260.456,128.312,260.482,128.48,260.585,128.691z"/>
	<path fill-rule="evenodd" clip-rule="evenodd" fill="#8D0809" d="M196.162,173.914c0-3.669-0.128-6.955,0.034-10.227
		c0.179-3.581,5.245-7.357,9.722-6.334c9.213,2.105,16.233-1.119,22.416-7.536c3.106-3.224,6.913-4.467,11.372-3.495
		c6.618,1.441,12.239-0.725,16.804-5.346c4.365-4.42,9.052-6.927,15.523-5.899c6.554,1.04,12.084-1.503,16.548-6.295
		c3.673-3.942,7.933-5.751,13.405-4.69c6.404,1.241,11.839-1.021,16.261-5.562c4.674-4.799,9.748-7.945,16.826-6.138
		c1.373,0.351,3.051-0.503,4.432-0.164c1.705,0.418,4.261-3.197,4.748,0.22c0.428,2.998,2.346,7.116-3.167,8.981
		c-13.99,4.733-27.79,10.026-41.673,15.077c-32.88,11.96-65.763,23.911-98.647,35.858
		C199.386,172.867,197.982,173.304,196.162,173.914z"/>
	<path fill-rule="evenodd" clip-rule="evenodd" fill="#EC1E26" d="M51.46,96.55c13.14,0.483,26.277,1.126,39.421,1.345
		c3.547,0.059,4.823,1.03,4.31,4.475c-0.17,1.142-0.153,2.346-0.003,3.492c0.407,3.11-0.524,4.357-3.988,4.209
		c-24.109-1.033-48.227-1.87-72.342-2.771c-0.997-0.038-1.994-0.113-2.991-0.131c-8.262-0.147-9.626-1.995-8.064-10.262
		c0.583-3.083,2.735-1.804,4.244-1.813c13.139-0.087,26.278-0.051,39.417-0.051C51.463,95.545,51.461,96.048,51.46,96.55z"/>
	<path fill-rule="evenodd" clip-rule="evenodd" fill="#EC1E26" d="M188.233,171.65c-11.145-7.752-22.306-15.512-33.463-23.277
		c-15.434-10.741-30.671-21.781-46.4-32.071c-5.574-3.646-6.996-7.702-5.36-14.162c3.925,2.688,7.709,5.242,11.457,7.85
		c22.541,15.677,44.957,31.539,67.694,46.927C187.627,160.615,190.917,164.316,188.233,171.65z"/>
	<path fill-rule="evenodd" clip-rule="evenodd" fill="#EC1E26" d="M245.224,45.631c4.956-3.056,9.104-3.51,14.544,0.394
		c25.932,18.604,52.273,36.637,78.463,54.883c1.056,0.735,2.047,1.564,3.567,2.733c-5.198,2.179-10.138,2.642-14.188-0.14
		c-27.408-18.818-54.627-37.913-81.895-56.936C245.482,46.403,245.414,46.007,245.224,45.631z"/>
	<path fill-rule="evenodd" clip-rule="evenodd" fill="#EC1E26" d="M30.105,88.488c1.469-1.005,1.952-1.194,2.23-1.546
		c7.468-9.401,17.684-8.455,28.054-7.85c19.425,1.136,38.875,1.845,58.313,2.741c0.647,0.03,1.289,0.164,1.996,0.595
		c-10.975,3.687-21.062,9.468-33.632,8.372C68.574,89.188,49.938,89.209,30.105,88.488z"/>
	<path fill-rule="evenodd" clip-rule="evenodd" fill="#EC1E26" d="M107.777,95.698c4.305-3.021,7.845-2.674,12.319,0.509
		c24.655,17.543,49.6,34.68,74.419,51.992c1.172,0.817,2.697,1.312,3.307,2.801c-3.591,4.218-6.716,3.615-11.115,0.487
		c-24.796-17.635-49.879-34.867-74.83-52.285C110.441,98.199,108.57,97.6,107.777,95.698z"/>
	<path fill-rule="evenodd" clip-rule="evenodd" fill="#EC1E26" d="M150.623,71.66c-9.477,4.07-18.715,7.019-29.345,6.088
		c-17.853-1.561-35.822-1.791-53.741-2.592c-0.595-0.026-1.184-0.166-1.921-0.274c4.241-5.375,8.803-8.125,16.119-7.622
		c21.7,1.489,43.466,2.004,65.207,2.914C148.223,70.228,149.71,69.681,150.623,71.66z"/>
	<path fill-rule="evenodd" clip-rule="evenodd" fill="#EC1E26" d="M96.52,63.92c4.515-6.605,10.082-8.367,17.435-7.91
		c22.967,1.427,45.977,2.164,69.026,3.581c-9.28,3.628-18.021,7.777-28.786,6.835C135.191,64.761,116.049,64.681,96.52,63.92z"/>
	<path fill-rule="evenodd" clip-rule="evenodd" fill="#8D0809" d="M174.841,32.207c0,4.318-0.275,8.658,0.078,12.947
		c0.349,4.232-2.403,4.224-5.031,4.073c-2.454-0.141-5.925,1.116-5.796-3.771c0.237-8.962,0.174-17.937,0.006-26.901
		c-0.054-2.877,0.916-3.053,3.45-2.781c7.276,0.779,7.293,0.626,7.293,7.964C174.841,26.561,174.841,29.384,174.841,32.207z"/>
	<path fill-rule="evenodd" clip-rule="evenodd" fill="#EC1E26" d="M157.937,53.846c-10.2-0.447-20.029-0.879-30.28-1.329
		c4.029-5.836,8.497-9.124,15.293-7.706c1.438,0.3,2.972,0.159,4.462,0.187C155.843,45.151,155.843,45.147,157.937,53.846z"/>
	<path fill-rule="evenodd" clip-rule="evenodd" fill="#EC1E26" d="M214.19,48.418c-10.717,5.099-21.707,8.766-34.037,5.94
		c-0.386-0.854,1.112-1.354,1.089-2.236c-0.18-6.745,4.439-5.394,8.563-5.324c8.115,0.138,16.233,0.041,24.351,0.041
		C214.168,47.365,214.179,47.892,214.19,48.418z"/>
	<path fill-rule="evenodd" clip-rule="evenodd" fill="#EC1E26" d="M234.599,40.99c-5.249,2.891-9.767,3.175-14.497,2.896
		c-11.742-0.692-23.5-1.129-35.25-1.699c-1.184-0.058-2.841,0.527-2.828-1.692c0.009-1.467,0.955-1.489,1.994-1.449
		C200.559,39.681,217.1,40.316,234.599,40.99z"/>
	<path fill-rule="evenodd" clip-rule="evenodd" fill="#FEC211" d="M257.148,200.243c0-10.139,0-10.139,9.534-13.577
		c8.169-2.945,8.169-2.945,8.169,5.824c0,12.721,0,12.721-11.294,16.84c-6.407,2.338-6.407,2.338-6.409-4.612
		C257.148,203.227,257.148,201.734,257.148,200.243z"/>
	<path fill-rule="evenodd" clip-rule="evenodd" fill="#FEC211" d="M249.998,192.795c0,6.717-0.028,12.845,0.019,18.972
		c0.013,1.694-0.468,2.753-2.234,3.349c-4.408,1.487-8.746,3.179-13.118,4.772c-1.914,0.697-2.716,0.062-2.686-2.031
		c0.079-5.495,0.076-10.991-0.003-16.485c-0.023-1.638,0.729-2.36,2.138-2.857C239.251,196.702,244.365,194.829,249.998,192.795z"/>
	<path fill-rule="evenodd" clip-rule="evenodd" fill="#FEC211" d="M274.852,213.496c0,1.838-0.003,3.321,0,4.806
		c0.035,14.867,0.013,14.79-14.566,19.089c-2.613,0.771-3.356,0.232-3.137-2.281c0.015-0.164,0.007-0.332,0-0.497
		C256.545,218.439,257.064,217.801,274.852,213.496z"/>
	<path fill-rule="evenodd" clip-rule="evenodd" fill="#FEC211" d="M250.002,231.946c0,9.066,0,9.066-8.573,12.242
		c-9.431,3.493-9.431,3.493-9.431-6.615c0-8.853,0-8.853,8.281-11.899c0.155-0.057,0.298-0.147,0.452-0.205
		C250.002,222.032,250.002,222.032,250.002,231.946z"/>
</g>
</svg>
