<?xml version="1.0" encoding="utf-8"?>
<!-- Generator: Adobe Illustrator 16.0.2, SVG Export Plug-In . SVG Version: 6.00 Build 0)  -->
<!DOCTYPE svg PUBLIC "-//W3C//DTD SVG 1.1//EN" "http://www.w3.org/Graphics/SVG/1.1/DTD/svg11.dtd">
<svg version="1.1" id="Layer_1" xmlns="http://www.w3.org/2000/svg" xmlns:xlink="http://www.w3.org/1999/xlink" x="0px" y="0px"
	 width="258px" height="82px" viewBox="0 0 258 82" enable-background="new 0 0 258 82" xml:space="preserve">
<g>
	<path fill="#EC2027" d="M7.57,4.662h20.69l15.878,52.35h0.193L59.15,4.662h21.171v71.212H65.213V27.277h-0.192
		c-1.059,6.159-2.406,10.682-3.945,15.878L50.394,75.874H36.536L25.951,43.155c-1.636-5.389-2.598-8.468-4.138-16.647H21.62v49.367
		H7.57V4.662z"/>
	<path fill="#EC2027" d="M84.359,62.786c0-11.837,10.008-18.381,32.526-20.208v-1.251c0-3.753-1.925-6.159-6.929-6.159
		c-6.544,0-12.125,2.695-16.841,6.353l-6.543-8.854c5.1-4.619,12.799-9.143,25.598-9.143c14.05,0,19.824,6.929,19.824,20.112v19.728
		c0,6.159,0.385,9.912,1.443,12.511H118.04c-0.674-2.117-1.155-4.619-1.155-7.507c-4.715,5.293-10.297,8.276-17.899,8.276
		C91.095,76.644,84.359,71.544,84.359,62.786z M116.885,60.572v-9.526c-12.222,1.251-17.418,4.331-17.418,9.046
		c0,3.271,2.31,4.908,5.678,4.908C110.534,65,114.287,63.171,116.885,60.572z"/>
	<path fill="#EC2027" d="M137.477,4.662h15.493v39.07l15.976-19.15h16.647l-16.744,19.15l17.706,32.142h-15.974l-11.355-20.882
		l-6.256,7.024v13.858h-15.493V4.662z"/>
	<path fill="#EC2027" d="M182.504,50.276c0-19.919,15.204-26.752,25.79-26.752c10.585,0,23.577,5.293,23.577,28.581v2.31H197.9
		c0.77,8.468,5.485,11.741,11.933,11.741c6.063,0,11.74-2.983,15.205-6.159l5.966,9.239c-5.966,5.1-13.375,7.698-22.325,7.698
		C195.303,76.933,182.504,70.1,182.504,50.276z M218.014,45.272c-0.771-7.217-4.043-10.681-9.816-10.681
		c-4.812,0-8.949,3.175-10.104,10.681H218.014z"/>
	<path fill="#EC2027" d="M235.044,24.583h16.647v14.916h-16.647V24.583z M235.044,60.957h16.647v14.917h-16.647V60.957z"/>
</g>
</svg>
