<?xml version="1.0" encoding="utf-8"?>
<!-- Generator: Adobe Illustrator 16.0.2, SVG Export Plug-In . SVG Version: 6.00 Build 0)  -->
<!DOCTYPE svg PUBLIC "-//W3C//DTD SVG 1.1//EN" "http://www.w3.org/Graphics/SVG/1.1/DTD/svg11.dtd">
<svg version="1.1" id="Layer_1" xmlns="http://www.w3.org/2000/svg" xmlns:xlink="http://www.w3.org/1999/xlink" x="0px" y="0px"
	 width="252.891px" height="249px" viewBox="0 0 252.891 249" enable-background="new 0 0 252.891 249" xml:space="preserve">
<g>
	<defs>
		<rect id="SVGID_1_" x="-7.109" y="-4" width="264.063" height="260"/>
	</defs>
	<clipPath id="SVGID_2_">
		<use xlink:href="#SVGID_1_"  overflow="visible"/>
	</clipPath>
	<path clip-path="url(#SVGID_2_)" fill="#62E3FF" d="M191.445,212.201c0,12.69-29.181,22.979-65.804,22.979
		s-66.313-10.288-66.313-22.979s29.689-22.979,66.313-22.979S191.445,199.511,191.445,212.201"/>
	<path clip-path="url(#SVGID_2_)" fill="#43AFFF" d="M137.744,234.798v-12.113c0-7.787,5.459-10.156,5.459-13.034
		c0-4.951-9.964,0.47-13.034,3.555c-4.676,4.697-4.147,6.537-4.034,14.41c0.029,2.037,0.038,4.725,0.035,7.564
		C130.125,235.169,133.992,235.039,137.744,234.798"/>
	<path clip-path="url(#SVGID_2_)" fill="#43AFFF" d="M107.337,234.295c-0.024-6.688-0.062-15.708-0.062-19.249
		c0-6.792-9.648-10.664-14.282-10.664c-2.348,0-5.269,0.121-5.269,1.362c0,3.145,8.823,4.985,8.823,11.523
		c0,3.602-0.052,10.803-0.088,15.574C99.927,233.432,103.562,233.92,107.337,234.295"/>
	<path clip-path="url(#SVGID_2_)" fill="#43AFFF" d="M152.556,217.014c0.085-6.179,9.141-9.142,8.802-11.13
		c-0.338-1.988-7.58-1.664-10.962-0.485c-9.591,3.343-8.631,11.319-8.631,11.319l-0.258,17.799
		c3.886-0.333,7.633-0.784,11.205-1.345C152.667,222.329,152.512,220.242,152.556,217.014"/>
	<path clip-path="url(#SVGID_2_)" fill="#43AFFF" d="M121.215,216.951c-3.847-8.507-15.463-11.427-15.463-7.555
		c0,2.603,2.349,1.777,3.936,7.617c0.641,2.356,0.987,10.102,1.176,17.596c3.972,0.313,8.08,0.501,12.289,0.555
		C123.056,227.762,122.596,220.026,121.215,216.951"/>
	<path clip-path="url(#SVGID_2_)" fill="#62E3FF" d="M49.936,153.465c-4.09,0-0.019-6.422,0-9.311
		C50.005,147.122,54.025,153.465,49.936,153.465"/>
</g>
<g>
	<defs>
		<rect id="SVGID_3_" x="-7.109" y="-4" width="264.063" height="260"/>
	</defs>
	<clipPath id="SVGID_4_">
		<use xlink:href="#SVGID_3_"  overflow="visible"/>
	</clipPath>
	<g clip-path="url(#SVGID_4_)">
		<defs>
			<rect id="SVGID_5_" x="6.602" y="27.883" width="236.049" height="181.495"/>
		</defs>
		<clipPath id="SVGID_6_">
			<use xlink:href="#SVGID_5_"  overflow="visible"/>
		</clipPath>
		<g clip-path="url(#SVGID_6_)">
			<defs>
				<rect id="SVGID_7_" x="6.602" y="27.883" width="236.049" height="181.495"/>
			</defs>
			<clipPath id="SVGID_8_">
				<use xlink:href="#SVGID_7_"  overflow="visible"/>
			</clipPath>
			<path clip-path="url(#SVGID_8_)" fill="#FFC09F" d="M150.652,81.566c20.449,0,25.645,14.473,25.645,25.645
				c0,15.229-7.662,26.27-26.73,29.123c-2.342,0.351-4.855,0.579-7.547,0.675c-11.512,0.417-23.019,0.361-32.499-0.005
				c-1.377-0.05-2.728-0.137-4.053-0.254c-19.901-1.741-34.033-10.74-34.033-30.895c0-7.632,5.159-24.289,25.979-24.289
				c2.062,0,15.523,1.27,28.523,1.27C137.479,82.836,149.154,81.566,150.652,81.566"/>
			<path clip-path="url(#SVGID_8_)" d="M242.028,114.838c0.411,0.081,0.686,0.477,0.609,0.889c-0.066,0.366-0.391,0.625-0.746,0.625
				c-0.046,0-0.097-0.005-0.143-0.01c-10.385-1.919-25.497-4.032-51.304-3.793c-0.452,1.498-0.96,2.925-1.514,4.286
				c8.785,0.294,32.911,1.234,52.584,7.252c0.406,0.121,0.63,0.548,0.508,0.954c-0.102,0.325-0.401,0.538-0.727,0.538
				c-0.076,0-0.152-0.01-0.224-0.035c-19.946-6.099-44.596-6.937-52.792-7.206c-6.357,13.959-18.662,20.125-37.994,23.024
				l-0.721-5.027c19.068-2.854,26.73-13.894,26.73-29.123c0-11.172-5.195-25.645-25.645-25.645c-1.498,0-13.173,1.27-24.715,1.27
				c-13,0-26.462-1.27-28.523-1.27c-20.82,0-25.979,16.656-25.979,24.289c0,20.155,14.132,29.154,34.033,30.895l-0.554,5.561
				c-23.659-2.396-37.726-10.72-45.053-24.024c-25.157,0.604-39.438,4.175-49.903,6.79c-0.762,0.192-1.503,0.375-2.224,0.559
				c-0.062,0.015-0.122,0.02-0.183,0.02c-0.346,0-0.655-0.233-0.742-0.578c-0.102-0.406,0.152-0.823,0.559-0.925
				c0.722-0.178,1.463-0.36,2.22-0.554c10.436-2.604,24.624-6.154,49.481-6.814c-0.687-1.376-1.306-2.798-1.859-4.266
				c-9.668-0.081-39.462,1.29-49.664,3.813c-0.061,0.016-0.121,0.021-0.183,0.021c-0.34,0-0.655-0.233-0.741-0.579
				c-0.097-0.406,0.152-0.822,0.559-0.924c10.11-2.499,39.183-3.885,49.481-3.859c-2.315-6.815-3.342-14.62-3.342-23.339
				c0-15.478,4.824-21.318,11.299-29.57c-4.951-17.646,1.777-29.707,1.777-29.707s10.41-2.158,30.088,11.934
				c10.664-4.57,39.102-4.951,52.559-1.016c8.252-5.459,23.359-13.203,29.453-11.035c1.65,2.656,5.205,10.4,2.158,27.412
				c2.067,3.732,12.822,11.68,12.863,34.15c-0.173,8.288-1.036,15.285-2.636,21.201
				C216.541,110.806,231.634,112.924,242.028,114.838"/>
			<path clip-path="url(#SVGID_8_)" d="M152.557,191.889c0.082,6.18,9.141,9.141,8.801,11.131c-0.34,1.986-7.581,1.666-10.964,0.482
				c-9.587-3.341-8.628-11.318-8.628-11.318l-0.319-21.897c0,0,0.655-11.786-3.702-11.786v35.842c0,7.789,5.459,10.156,5.459,13.035
				c0,4.951-9.963-0.467-13.035-3.555c-4.677-4.697-4.145-14.66-4.032-22.537c0.106-7.606-0.071-24.248-0.071-24.248l-3.174,0.066
				c0,0,1.3,36.35-1.676,42.971c-3.849,8.506-15.463,11.432-15.463,7.557c0-2.605,2.859-1.777,4.443-7.617
				c1.351-4.967,0.889-42.021,0.889-42.021s-3.722,2.199-3.722,9.141c0,3.174-0.087,21.323-0.087,26.721
				c0,6.795-9.648,10.664-14.284,10.664c-2.347,0-5.267-0.116-5.267-1.36c0-3.144,8.821-4.987,8.821-11.522
				c0-5.667-0.122-20.246-0.122-20.246s-4.448,0.762-10.796,0.762c-15.996,0-21.055-10.207-23.461-15.92
				c-3.134-7.439-7.196-10.934-11.513-13.727c-2.65-1.717-3.26-3.737-0.192-4.316c14.157-2.666,17.778,16.057,27.233,19.043
				c6.749,2.128,15.428,1.209,19.744-1.584c0.568-5.719,4.692-10.664,8.125-13.27c-0.219-0.021-0.437-0.041-0.65-0.066l0.554-5.561
				c1.325,0.117,2.676,0.204,4.053,0.254c9.48,0.366,20.987,0.422,32.499,0.005c2.691-0.096,5.205-0.324,7.547-0.675l0.721,5.027
				c-2.366,0.355-4.845,0.665-7.424,0.93c7.662,4.824,9.861,10.877,9.861,27.254S152.507,188.121,152.557,191.889"/>
		</g>
	</g>
</g>
<g>
	<defs>
		<rect id="SVGID_9_" x="-7.109" y="-4" width="264.063" height="260"/>
	</defs>
	<clipPath id="SVGID_10_">
		<use xlink:href="#SVGID_9_"  overflow="visible"/>
	</clipPath>
	<path clip-path="url(#SVGID_10_)" fill="#FFFFFF" d="M106.472,107.084c0-8.951-4.869-16.208-10.876-16.208
		s-10.875,7.257-10.875,16.208s4.868,15.192,10.875,15.192S106.472,116.035,106.472,107.084"/>
	<path clip-path="url(#SVGID_10_)" fill="#FFFFFF" d="M165.25,107.084c0-8.951-4.868-16.208-10.875-16.208
		S143.5,98.133,143.5,107.084s4.868,15.192,10.875,15.192S165.25,116.035,165.25,107.084"/>
	<path clip-path="url(#SVGID_10_)" fill="#B1423A" d="M124.203,132.01c-3.888,0-6.729-3.34-6.729-5.078
		c0-0.421,0.341-0.762,0.762-0.762s0.762,0.341,0.762,0.762c0,0.859,2.159,3.555,5.205,3.555c2.64,0,4.611-1.877,4.611-3.555
		c0-0.421,0.342-0.762,0.762-0.762c0.421,0,0.762,0.341,0.762,0.762C130.338,129.333,127.818,132.01,124.203,132.01"/>
	<path clip-path="url(#SVGID_10_)" fill="#B1423A" d="M126.742,120.626c0,1.449-1.175,2.624-2.624,2.624s-2.624-1.175-2.624-2.624
		s1.175-2.624,2.624-2.624S126.742,119.177,126.742,120.626"/>
	<path clip-path="url(#SVGID_10_)" fill="#B1423A" d="M102.748,107.084c0-5.796-3.202-10.495-7.152-10.495
		c-3.949,0-7.151,4.699-7.151,10.495s3.202,10.495,7.151,10.495C99.546,117.579,102.748,112.88,102.748,107.084"/>
	<path clip-path="url(#SVGID_10_)" fill="#B1423A" d="M161.527,107.084c0-5.796-3.202-10.495-7.152-10.495
		s-7.152,4.699-7.152,10.495s3.202,10.495,7.152,10.495S161.527,112.88,161.527,107.084"/>
</g>
<g>
	<defs>
		<rect id="SVGID_11_" x="-7.109" y="-4" width="264.063" height="260"/>
	</defs>
	<clipPath id="SVGID_12_">
		<use xlink:href="#SVGID_11_"  overflow="visible"/>
	</clipPath>
	<path clip-path="url(#SVGID_12_)" fill="#B0F5DF" d="M56.812,140.113c0,0.631-0.768,1.143-1.714,1.143s-1.714-0.512-1.714-1.143
		s0.768-1.143,1.714-1.143S56.812,139.482,56.812,140.113"/>
	<path clip-path="url(#SVGID_12_)" fill="#B0F5DF" d="M62.144,143.012c0,0.631-0.768,1.143-1.714,1.143s-1.714-0.512-1.714-1.143
		c0-0.63,0.768-1.143,1.714-1.143S62.144,142.382,62.144,143.012"/>
	<path clip-path="url(#SVGID_12_)" fill="#B0F5DF" d="M65.402,146.885c0,0.63-0.768,1.143-1.714,1.143s-1.714-0.513-1.714-1.143
		c0-0.631,0.768-1.143,1.714-1.143S65.402,146.254,65.402,146.885"/>
	<path clip-path="url(#SVGID_12_)" fill="#B0F5DF" d="M68.259,151.264c0,0.631-0.768,1.143-1.714,1.143s-1.714-0.512-1.714-1.143
		c0-0.63,0.768-1.143,1.714-1.143S68.259,150.634,68.259,151.264"/>
	<path clip-path="url(#SVGID_12_)" fill="#B0F5DF" d="M71.517,155.391c0,0.63-0.767,1.143-1.714,1.143
		c-0.946,0-1.714-0.513-1.714-1.143c0-0.631,0.768-1.143,1.714-1.143C70.75,154.248,71.517,154.76,71.517,155.391"/>
	<path clip-path="url(#SVGID_12_)" fill="#B0F5DF" d="M75.918,158.902c0,0.631-0.768,1.143-1.714,1.143s-1.714-0.512-1.714-1.143
		s0.768-1.143,1.714-1.143S75.918,158.271,75.918,158.902"/>
	<path clip-path="url(#SVGID_12_)" fill="#B0F5DF" d="M82.075,161.188c0,0.631-0.768,1.143-1.714,1.143s-1.714-0.512-1.714-1.143
		s0.768-1.143,1.714-1.143S82.075,160.557,82.075,161.188"/>
	<path clip-path="url(#SVGID_12_)" fill="#B0F5DF" d="M88.254,161.188c0,0.631-0.768,1.143-1.714,1.143s-1.714-0.512-1.714-1.143
		s0.768-1.143,1.714-1.143S88.254,160.557,88.254,161.188"/>
	<path clip-path="url(#SVGID_12_)" fill="#B0F5DF" d="M94.453,160.215c0,0.63-0.768,1.143-1.714,1.143s-1.714-0.513-1.714-1.143
		c0-0.631,0.768-1.143,1.714-1.143S94.453,159.584,94.453,160.215"/>
</g>
</svg>
