<?xml version="1.0" encoding="utf-8"?>
<!-- Generator: Adobe Illustrator 16.0.2, SVG Export Plug-In . SVG Version: 6.00 Build 0)  -->
<!DOCTYPE svg PUBLIC "-//W3C//DTD SVG 1.1//EN" "http://www.w3.org/Graphics/SVG/1.1/DTD/svg11.dtd">
<svg version="1.1" id="Shape_9_xA0_Image_1_" xmlns="http://www.w3.org/2000/svg" xmlns:xlink="http://www.w3.org/1999/xlink"
	 x="0px" y="0px" width="1332px" height="1162px" viewBox="0 0 1332 1162" enable-background="new 0 0 1332 1162"
	 xml:space="preserve">
<g>
	<path fill-rule="evenodd" clip-rule="evenodd" fill="#FEFEFE" d="M1302.182,1163.101"/>
	<path fill-rule="evenodd" clip-rule="evenodd" d="M690,18c-0.162,0.803-0.768,0.878-1.448,0.991
		c-10.333,1.71-16.453,8.734-16.463,19.11c-0.025,28.497,0.028,56.994,0.032,85.492c0.002,16.332-0.035,32.663-0.046,48.995
		c-0.01,16.499,0.561,33.023-0.173,49.49c-0.713,16.007,1.088,31.868-2.261,48.144c-3.507,17.043-1.969,35.135-2.521,52.771
		c-0.49,15.648-0.709,31.306-1.249,46.951c-1.202,34.775-2.544,69.546-3.801,104.319c-0.644,17.801-1.259,35.602-1.831,53.404
		c-1.102,34.283-2.168,68.567-3.24,102.851c-0.375,11.984-0.838,23.967-1.019,35.953c-0.055,3.605-1.089,4.69-4.868,4.663
		c-24.331-0.173-48.663-0.056-72.995-0.012c-52.661,0.096-105.323,0.188-157.985,0.313c-43.161,0.103-86.322,0.242-129.483,0.396
		c-2.721,0.01-4.964,0.311-5.748-3.547c-4.104-20.179-8.562-40.284-12.818-60.432c-11.454-54.219-22.829-108.454-34.31-162.668
		c-11.248-53.116-22.453-106.241-34.06-159.279c-1.418-6.482-0.115-14.572-7.703-18.791c-0.636-0.354-0.785-1.774-0.963-2.735
		c-5.68-30.679-11.366-61.357-16.989-92.047c-8.063-44.008-16.085-88.023-24.095-132.041c-0.771-4.237-2.938-7.662-6.902-8.998
		c-8.231-2.773-16.445-2.549-23.541,3.13c-6.384,5.11-7.496,12.089-5.978,19.806c2.27,11.535,4.416,23.096,6.561,34.655
		c5.772,31.103,11.488,62.215,17.279,93.313c5.607,30.109,11.279,60.207,16.923,90.309c0.15,0.799,0.637,2.179,0.412,2.307
		c-4.831,2.73-2.001,6.762-1.51,10.07c3.307,22.29,6.852,44.544,10.333,66.808c3.838,24.551,7.704,49.097,11.533,73.648
		c3.14,20.129,6.223,40.268,9.367,60.396c3.526,22.574,7.096,45.142,10.643,67.712c2.852,18.152,5.699,36.306,8.547,54.459
		c3.13,19.951,6.192,39.913,9.447,59.845c0.606,3.71-0.655,4.273-4.049,4.245c-17.164-0.144-34.334,0.201-51.494-0.08
		c-7.716-0.126-14.673,1.84-21.68,4.704c-6.542,2.674-12.264,7.605-19.884,7.51c-0.624-0.007-1.58,0.829-1.837,1.486
		c-1.465,3.741-4.825,5.338-7.872,7.338c-3.685,2.419-6.341,5.644-8.394,9.627c-12.448,24.151-25.139,48.177-37.598,72.322
		c-10.763,20.855-21.329,41.813-31.974,62.729c-2.521,4.953-3.894,10.49-1.012,15.264c3.763,6.232,3.836,11.684-0.182,17.495
		c-2.203,3.186-3.149,6.319,0.693,9.097c1.643,1.188,2.01,2.954,2.025,4.872c0.036,4.673,0.096,9.327-1.913,13.731
		c-0.985,2.16-1.721,4.641-0.623,6.789c3.526,6.9,2.962,13.698,0.227,20.613c-0.688,1.737-0.883,3.73-0.157,5.399
		c3.085,7.093,2.633,14.111,0.195,21.241c-0.465,1.359-0.756,3.175-0.239,4.407c3.05,7.269,1.739,14.618,0.972,22.021
		c-0.309,2.976-0.318,6.933,2.162,8.366c6.85,3.959,8.587,11.227,12.438,17.104c1.977,3.018,2.752,7.629,8.182,5.133
		c0.428-0.196,1.356,0.221,1.808,0.625c3.067,2.749,6.808,2.314,10.451,2.314c48.497,0.006,96.995,0.063,145.491-0.108
		c4.355-0.016,7.606,1.281,10.722,4.02c3.791,3.332,8.18,5.133,13.398,5.122c42.827-0.092,85.653-0.106,128.48-0.106
		c175.143,0.002,350.286-0.004,525.429,0.038c66.797,0.016,133.594,0.082,200.39,0.32c8.718,0.031,16.895-0.729,23.702-6.771
		c1.857-1.647,4.033-1.299,6.163-1.313c48.985-0.332,97.962-1.883,146.956-0.992c4.968,0.091,9.654-0.474,14.557-2.317
		c13.101-4.928,19.036-15.017,21.725-27.655c0.737-3.466-0.289-7.279-0.295-10.934c-0.041-28.933-0.373-57.871,0.149-86.794
		c0.18-9.974-0.647-19.909-0.169-29.86c0.079-1.648-0.126-3.563,0.633-4.872c1.577-2.722,0.848-4.997-0.226-7.543
		c-19.013-45.069-37.976-90.161-56.972-135.238c-2.622-6.223-4.303-13.224-8.331-18.366c-4.193-5.354-10.711-8.884-16.198-13.229
		c-4.668-3.696-10.122-5.384-15.919-5.418c-21.331-0.128-42.663-0.062-63.994,0.026c-2.673,0.011-3.905,0.072-3.286-3.537
		c4.229-24.608,8.173-49.265,12.111-73.922c5.45-34.122,10.737-68.271,16.239-102.385c5.5-34.107,11.198-68.183,16.774-102.277
		c5.018-30.675,10.212-61.324,14.804-92.064c1.032-6.909,4.466-14.102,0.267-21.282c-0.56-0.956-0.074-2.632,0.163-3.932
		c4.907-26.822,9.936-53.622,14.765-80.459c8.516-47.323,16.859-94.679,25.453-141.987c0.78-4.297-0.53-7.527-3.093-10.399
		c-6.019-6.745-14.015-8.512-22.272-6.421c-8.367,2.119-11.417,9.251-12.859,17.216c-6.359,35.122-12.762,70.237-19.237,105.338
		c-6.566,35.596-13.18,71.184-19.977,106.735c-0.534,2.793,0.447,6.632-2.445,8.273c-3.334,1.892-3.588,4.905-4.255,7.834
		c-1.539,6.763-2.79,13.591-4.276,20.366c-15.674,71.439-31.359,142.876-47.066,214.309
		c-11.261,51.212-22.587,102.41-33.788,153.635c-0.814,3.723-2.071,5.161-6.356,5.161c-63.159-0.011-126.317,0.269-189.477,0.421
		c-48.496,0.117-96.992,0.097-145.488,0.326c-4.029,0.02-4.862-1.144-4.815-4.929c0.118-9.653-0.484-19.31-0.725-28.959
		c-0.871-34.963-2.04-69.916-3.017-104.875c-0.99-35.458-1.835-70.918-2.971-106.372c-0.741-23.137-1.151-46.284-1.959-69.423
		c-0.982-28.129-1.531-56.272-2.286-84.41c-0.035-1.31,0.238-3.322-0.46-3.803c-3.304-2.272-2.518-5.538-2.521-8.567
		c-0.084-73.826-0.151-147.652-0.124-221.478c0.001-3.858-1.239-6.968-3.231-10.137C703.706,21.909,697.563,19.676,691,18"/>
	<path fill-rule="evenodd" clip-rule="evenodd" fill="#010101" d="M691,18c6.563,1.676,12.706,3.909,16.607,10.111
		c1.992,3.169,3.232,6.278,3.231,10.137c-0.027,73.825,0.04,147.651,0.124,221.478c0.003,3.029-0.783,6.295,2.521,8.567
		c0.698,0.48,0.425,2.493,0.46,3.803c0.755,28.138,1.304,56.281,2.286,84.41c0.808,23.139,1.218,46.286,1.959,69.423
		c1.136,35.454,1.98,70.914,2.971,106.372c0.977,34.959,2.146,69.912,3.017,104.875c0.24,9.649,0.843,19.306,0.725,28.959
		c-0.047,3.785,0.786,4.948,4.815,4.929c48.496-0.229,96.992-0.209,145.488-0.326c63.159-0.152,126.317-0.432,189.477-0.421
		c4.285,0,5.542-1.438,6.356-5.161c11.201-51.225,22.527-102.423,33.788-153.635c15.707-71.433,31.393-142.869,47.066-214.309
		c1.486-6.775,2.737-13.604,4.276-20.366c0.667-2.929,0.921-5.942,4.255-7.834c2.893-1.642,1.911-5.48,2.445-8.273
		c6.797-35.552,13.41-71.14,19.977-106.735c6.476-35.101,12.878-70.216,19.237-105.338c1.442-7.965,4.492-15.097,12.859-17.216
		c8.258-2.091,16.254-0.324,22.272,6.421c2.563,2.872,3.873,6.103,3.093,10.399c-8.594,47.309-16.938,94.664-25.453,141.987
		c-4.829,26.837-9.857,53.637-14.765,80.459c-0.237,1.3-0.723,2.976-0.163,3.932c4.199,7.181,0.766,14.373-0.267,21.282
		c-4.592,30.74-9.786,61.39-14.804,92.064c-5.576,34.095-11.274,68.17-16.774,102.277c-5.502,34.113-10.789,68.263-16.239,102.385
		c-3.938,24.657-7.883,49.313-12.111,73.922c-0.619,3.609,0.613,3.548,3.286,3.537c21.331-0.088,42.663-0.154,63.994-0.026
		c5.797,0.034,11.251,1.722,15.919,5.418c5.487,4.345,12.005,7.874,16.198,13.229c4.028,5.143,5.709,12.144,8.331,18.366
		c18.996,45.077,37.959,90.169,56.972,135.238c1.073,2.546,1.803,4.821,0.226,7.543c-0.759,1.309-0.554,3.224-0.633,4.872
		c-0.479,9.951,0.349,19.887,0.169,29.86c-0.522,28.923-0.19,57.861-0.149,86.794c0.006,3.654,1.032,7.468,0.295,10.934
		c-2.688,12.639-8.624,22.728-21.725,27.655c-4.902,1.844-9.589,2.408-14.557,2.317c-48.994-0.891-97.971,0.66-146.956,0.992
		c-2.13,0.015-4.306-0.334-6.163,1.313c-6.808,6.042-14.984,6.803-23.702,6.771c-66.796-0.238-133.593-0.305-200.39-0.32
		c-175.144-0.042-350.286-0.036-525.429-0.038c-42.827,0-85.653,0.015-128.48,0.106c-5.218,0.011-9.607-1.79-13.398-5.122
		c-3.116-2.738-6.367-4.035-10.722-4.02c-48.496,0.172-96.994,0.114-145.491,0.108c-3.643,0-7.384,0.435-10.451-2.314
		c-0.451-0.404-1.379-0.821-1.808-0.625c-5.43,2.496-6.205-2.115-8.182-5.133c-3.852-5.877-5.589-13.145-12.438-17.104
		c-2.48-1.434-2.471-5.391-2.162-8.366c0.767-7.403,2.078-14.753-0.972-22.021c-0.517-1.232-0.226-3.048,0.239-4.407
		c2.438-7.13,2.89-14.148-0.195-21.241c-0.727-1.669-0.531-3.662,0.157-5.399c2.735-6.915,3.299-13.713-0.227-20.613
		c-1.098-2.148-0.363-4.629,0.623-6.789c2.009-4.404,1.949-9.059,1.913-13.731c-0.015-1.918-0.382-3.685-2.025-4.872
		c-3.843-2.777-2.896-5.911-0.693-9.097c4.019-5.812,3.945-11.263,0.182-17.495c-2.882-4.773-1.509-10.311,1.012-15.264
		c10.646-20.916,21.211-41.874,31.974-62.729c12.459-24.146,25.15-48.171,37.598-72.322c2.053-3.983,4.709-7.208,8.394-9.627
		c3.047-2,6.407-3.597,7.872-7.338c0.257-0.657,1.213-1.493,1.837-1.486c7.62,0.096,13.342-4.836,19.884-7.51
		c7.006-2.864,13.963-4.83,21.68-4.704c17.16,0.281,34.33-0.063,51.494,0.08c3.394,0.028,4.655-0.535,4.049-4.245
		c-3.255-19.932-6.317-39.894-9.447-59.845c-2.848-18.153-5.695-36.307-8.547-54.459c-3.547-22.57-7.116-45.138-10.643-67.712
		c-3.145-20.129-6.228-40.268-9.367-60.396c-3.829-24.552-7.694-49.098-11.533-73.648c-3.481-22.264-7.026-44.518-10.333-66.808
		c-0.491-3.309-3.321-7.34,1.51-10.07c0.225-0.128-0.262-1.508-0.412-2.307c-5.644-30.102-11.316-60.199-16.923-90.309
		c-5.791-31.099-11.507-62.211-17.279-93.313c-2.145-11.56-4.291-23.12-6.561-34.655c-1.518-7.717-0.407-14.695,5.978-19.806
		c7.095-5.679,15.309-5.903,23.541-3.13c3.963,1.336,6.131,4.761,6.902,8.998c8.01,44.018,16.032,88.033,24.095,132.041
		c5.623,30.689,11.309,61.368,16.989,92.047c0.178,0.961,0.327,2.382,0.963,2.735c7.587,4.219,6.284,12.309,7.703,18.791
		c11.606,53.038,22.812,106.163,34.06,159.279c11.48,54.214,22.855,108.449,34.31,162.668c4.256,20.147,8.714,40.253,12.818,60.432
		c0.784,3.857,3.027,3.557,5.748,3.547c43.161-0.153,86.322-0.293,129.483-0.396c52.662-0.125,105.324-0.218,157.985-0.313
		c24.332-0.044,48.664-0.161,72.995,0.012c3.779,0.027,4.813-1.058,4.868-4.663c0.181-11.986,0.644-23.969,1.019-35.953
		c1.072-34.283,2.139-68.567,3.24-102.851c0.572-17.803,1.188-35.604,1.831-53.404c1.257-34.773,2.599-69.544,3.801-104.319
		c0.54-15.646,0.759-31.303,1.249-46.951c0.552-17.637-0.986-35.729,2.521-52.771c3.349-16.275,1.548-32.137,2.261-48.144
		c0.733-16.467,0.163-32.991,0.173-49.49c0.011-16.332,0.048-32.663,0.046-48.995c-0.004-28.498-0.058-56.995-0.032-85.492
		c0.01-10.376,6.13-17.4,16.463-19.11c0.681-0.113,1.286-0.188,1.448-0.991C690.333,18,690.667,18,691,18z M959.844,874.623
		c0.144-0.031,0.288-0.063,0.432-0.095c-0.147-0.041-0.295-0.083-0.442-0.125c16.073-0.151,32.147-0.304,48.222-0.456
		c24.848-0.04,49.695-0.081,74.543-0.121c19.395,1.753,33.884,17.564,33.848,37.174c-0.053,27.965-0.398,55.928,0.372,83.893
		c0.112,4.081,1.035,5.233,5.21,5.212c34.495-0.178,68.991-0.075,103.486-0.112c15.991-0.017,31.984,0.243,47.971-0.485
		c6.618-0.302,17.334-9.487,17.92-15.744c0.324-3.476,0.541-6.979,0.52-10.467c-0.197-31.988,0.744-63.98-0.765-95.967
		c-0.781-16.561-3.241-32.388-9.881-47.961c-17.109-40.128-32.994-80.776-49.531-121.151c-2.739-6.688-4.973-13.597-10.973-18.711
		c-6.813-5.808-14.31-7.493-22.939-7.467c-107.646,0.325-215.294,0.534-322.94,0.706c-114.983,0.184-229.966,0.259-344.949,0.455
		c-61.987,0.105-123.974,0.412-185.961,0.54c-60.158,0.123-120.315,0.115-180.473,0.239c-3.942,0.008-7.843-1.222-11.867,0.243
		c-8.176,2.976-15.655,7.371-23.473,11.068c-1.693,0.802-2.661,2.404-3.544,4.07c-11.932,22.512-23.796,45.059-35.898,67.479
		c-11.543,21.385-22.284,43.221-34.999,63.95c-5.66,9.228-8.222,18.708-8.037,29.685c0.578,34.318,0.751,68.659,0.152,102.975
		c-0.224,12.795,4.94,22.99,10.833,33.387c1.258,2.22,2.751,2.808,5.217,2.774c11.995-0.162,23.993-0.137,35.989-0.113
		c35.995,0.072,71.992,0.058,107.984,0.403c4.933,0.047,6.864-1.871,7.866-6.104c1.175-4.963,1.626-10.031,1.506-15.057
		c-0.512-21.304-1.998-42.585-1.495-63.911c0.206-8.722,1.104-17.3,6.932-24.437c9.097-11.142,21.635-16.936,35.234-16.987
		c67.648-0.258,135.3,0.43,202.95,0.785c-1.699,0.993-3.58,0.612-5.375,0.614c-33.815,0.032-67.631,0.023-101.446,0.023
		c0,0.655,0,1.31,0,1.965c102.609,0,205.218,0.017,307.828-0.013c23.642-0.007,47.283-0.172,70.925-0.265
		c1.415,0.002,2.83,0.003,4.245,0.005c0.312,0,0.623,0.001,0.936,0.002c1.29,0.008,2.58,0.016,3.871,0.023l0.152,0.184l0.156-0.184
		c1.795-0.002,3.591-0.003,5.386-0.005l-0.062,0.003c22.464,0,44.929,0,67.393,0l0.138,0.174l0.129-0.18
		c2.365-0.052,4.73-0.104,7.096-0.155c0.472,0.107,0.943,0.313,1.415,0.311c42.211-0.176,84.422-0.367,126.633-0.557
		c39.914,0,79.827,0,119.741,0c0-0.505-0.001-1.01-0.001-1.514C1031.961,874.623,995.902,874.623,959.844,874.623z"/>
	<path fill-rule="evenodd" clip-rule="evenodd" fill="#FEFEFE" d="M1008.055,873.947c-16.074,0.152-32.148,0.305-48.207,0.457
		c-29.877-0.577-59.769-0.096-89.66,0.171c2.644-0.016,5.287-0.033,7.931-0.013c27.242,0.209,54.483,0.7,81.726,0.061
		c36.059,0,72.117,0,108.176,0c0,0.504,0.001,1.009,0.001,1.514c-39.914,0-79.827,0-119.719,0
		c-17.265-0.043-34.553-0.155-51.841-0.113c-25.41,0.062-50.82,0.234-76.229,0.359c-2.365,0.052-4.73,0.104-7.092,0.154
		c-0.043-0.125-0.091-0.249-0.138-0.374c-0.044,0.127-0.088,0.254-0.133,0.381c-22.464,0-44.929,0-67.393,0l0.047-0.294l0.015,0.291
		c-1.795,0.002-3.591,0.003-5.38,0.004c-0.046-0.139-0.097-0.277-0.148-0.415c-0.055,0.139-0.11,0.277-0.166,0.416
		c-1.291-0.008-2.581-0.016-3.861-0.024c-0.07-0.141-0.149-0.279-0.229-0.419c-0.209,0.19-0.864-0.385-0.716,0.418
		c-1.415-0.002-2.83-0.003-4.228-0.005c-0.609-0.868-1.506-0.383-2.259-0.392c-18.481-0.211-36.966-0.249-55.447-0.394
		c-49.102-0.385-98.203-0.656-147.303-1.387c-22.309-0.332-44.626-0.119-66.939-0.153c-67.65-0.355-135.302-1.043-202.95-0.785
		c-13.599,0.052-26.137,5.846-35.234,16.987c-5.827,7.137-6.726,15.715-6.932,24.437c-0.503,21.326,0.983,42.607,1.495,63.911
		c0.121,5.025-0.331,10.094-1.506,15.057c-1.002,4.232-2.934,6.15-7.866,6.104c-35.992-0.346-71.989-0.331-107.984-0.403
		c-11.997-0.023-23.995-0.049-35.989,0.113c-2.466,0.033-3.959-0.555-5.217-2.774c-5.893-10.396-11.057-20.592-10.833-33.387
		c0.599-34.315,0.425-68.656-0.152-102.975c-0.185-10.977,2.376-20.457,8.037-29.685c12.715-20.729,23.456-42.565,34.999-63.95
		c12.102-22.42,23.967-44.967,35.898-67.479c0.883-1.666,1.851-3.269,3.544-4.07c7.818-3.697,15.297-8.093,23.473-11.068
		c4.023-1.465,7.924-0.235,11.867-0.243c60.158-0.124,120.315-0.116,180.473-0.239c61.987-0.128,123.974-0.435,185.961-0.54
		c114.983-0.196,229.966-0.271,344.949-0.455c107.646-0.172,215.294-0.381,322.94-0.706c8.63-0.026,16.126,1.659,22.939,7.467
		c6,5.114,8.233,12.023,10.973,18.711c16.537,40.375,32.422,81.023,49.531,121.151c6.64,15.573,9.1,31.4,9.881,47.961
		c1.509,31.986,0.567,63.979,0.765,95.967c0.021,3.488-0.195,6.991-0.52,10.467c-0.586,6.257-11.302,15.442-17.92,15.744
		c-15.986,0.729-31.979,0.469-47.971,0.485c-34.495,0.037-68.991-0.065-103.486,0.112c-4.175,0.021-5.098-1.131-5.21-5.212
		c-0.771-27.965-0.425-55.928-0.372-83.893c0.036-19.609-14.453-35.421-33.846-37.174c-0.938-0.896-2.134-0.827-3.285-0.813
		C1055.562,873.317,1031.809,873.634,1008.055,873.947z M671.308,773.921c0-0.243,0-0.485,0-0.729
		c47.13,0,94.261,0.011,141.392-0.004c22.482-0.007,44.967,0.082,67.446-0.173c7.381-0.083,11.617-4.29,11.699-10.331
		c0.083-6.121-3.944-9.635-11.594-10.304c-16.982-1.485-33.967,0.301-50.955-0.138c-35.442-0.914-70.896-0.113-106.356-1.1
		c-29.607-0.824-59.277,0.854-88.922,1.036c-53.8,0.331-107.602,0.384-161.403,0.517c-4.023,0.01-7.972,0.274-11.852,1.428
		c-4.285,1.273-6.754,4.098-7.443,8.466c-0.388,2.46-0.498,4.97-0.986,7.406c-0.351,1.747,0.046,1.942,1.819,2.341
		c5.226,1.175,10.392,1.689,15.784,1.678C537.061,773.872,604.184,773.921,671.308,773.921z M1208.544,911.91
		c0,0.221,0,0.441,0,0.662c-17.313,0-34.627-0.084-51.939,0.035c-8.633,0.06-12.171,3.619-12.282,12.161
		c-0.185,14.313-0.242,28.629-0.282,42.943c-0.022,7.87,3.393,11.299,11.228,11.252c16.146-0.098,32.292-0.257,48.437-0.433
		c18.307-0.2,36.612-0.388,54.917-0.698c7.516-0.128,11.488-3.897,11.601-10.79c0.239-14.646,0.433-29.294,0.561-43.941
		c0.067-7.712-3.496-11.18-11.303-11.187C1242.501,911.899,1225.522,911.91,1208.544,911.91z"/>
	<path fill-rule="evenodd" clip-rule="evenodd" fill="#B7FD01" d="M458.862,874.19c22.313,0.034,44.63-0.179,66.939,0.153
		c49.1,0.73,98.201,1.002,147.303,1.387c18.481,0.145,36.966,0.183,55.447,0.394c0.753,0.009,1.649-0.477,2.259,0.392
		c-23.659,0.093-47.301,0.258-70.942,0.265c-102.609,0.029-205.218,0.013-307.828,0.013c0-0.655,0-1.31,0-1.965
		c33.815,0,67.631,0.009,101.446-0.023C455.282,874.803,457.163,875.184,458.862,874.19z"/>
	<path fill-rule="evenodd" clip-rule="evenodd" fill="#B7FD01" d="M820.231,876.383c25.409-0.125,50.819-0.298,76.229-0.359
		c17.288-0.042,34.576,0.07,51.841,0.113c-42.233,0.189-84.444,0.381-126.655,0.557C821.175,876.695,820.703,876.49,820.231,876.383
		z"/>
	<path fill-rule="evenodd" clip-rule="evenodd" fill="#B7FD01" d="M959.844,874.623c-27.242,0.64-54.483,0.148-81.726-0.061
		c-2.644-0.021-5.287-0.003-7.931,0.013c29.892-0.267,59.783-0.748,89.66-0.171c0.133,0.041,0.28,0.083,0.428,0.124
		C960.132,874.56,959.987,874.592,959.844,874.623z"/>
	<path fill-rule="evenodd" clip-rule="evenodd" fill="#B7FD01" d="M1008.055,873.947c23.754-0.313,47.507-0.63,71.26-0.934
		c1.151-0.015,2.348-0.083,3.285,0.813C1057.75,873.866,1032.902,873.907,1008.055,873.947z"/>
	<path fill-rule="evenodd" clip-rule="evenodd" fill="#B7FD01" d="M735.037,876.521c-0.148-0.803,0.507-0.228,0.716-0.418
		c0.08,0.14,0.159,0.278,0.229,0.419C735.66,876.521,735.349,876.521,735.037,876.521z"/>
	<path fill-rule="evenodd" clip-rule="evenodd" fill="#B7FD01" d="M739.844,876.546c0.056-0.139,0.111-0.277,0.166-0.416
		c0.052,0.138,0.103,0.276,0.148,0.415c-0.006,0.001-0.162,0.185-0.162,0.185L739.844,876.546z"/>
	<path fill-rule="evenodd" clip-rule="evenodd" fill="#B7FD01" d="M812.869,876.544c0.045-0.127,0.089-0.254,0.133-0.381
		c0.047,0.125,0.095,0.249,0.138,0.374c-0.004,0.001-0.133,0.181-0.133,0.181L812.869,876.544z"/>
	<polygon fill-rule="evenodd" clip-rule="evenodd" fill="#B7FD01" points="745.538,876.541 745.523,876.25 745.477,876.544 	"/>
	<path fill-rule="evenodd" clip-rule="evenodd" fill="#010101" d="M671.308,773.921c-67.124,0-134.247-0.049-201.371,0.093
		c-5.392,0.012-10.558-0.503-15.784-1.678c-1.773-0.398-2.17-0.594-1.819-2.341c0.489-2.437,0.599-4.946,0.986-7.406
		c0.688-4.368,3.158-7.192,7.443-8.466c3.879-1.153,7.829-1.418,11.852-1.428c53.802-0.133,107.604-0.186,161.403-0.517
		c29.645-0.183,59.314-1.86,88.922-1.036c35.46,0.986,70.914,0.186,106.356,1.1c16.988,0.438,33.973-1.348,50.955,0.138
		c7.649,0.669,11.677,4.183,11.594,10.304c-0.082,6.041-4.318,10.248-11.699,10.331c-22.479,0.255-44.964,0.166-67.446,0.173
		c-47.131,0.015-94.262,0.004-141.392,0.004C671.308,773.436,671.308,773.678,671.308,773.921z"/>
	<path fill-rule="evenodd" clip-rule="evenodd" fill="#B7FD01" d="M1208.544,911.91c16.979,0,33.957-0.011,50.936,0.005
		c7.807,0.007,11.37,3.475,11.303,11.187c-0.128,14.647-0.321,29.295-0.561,43.941c-0.112,6.893-4.085,10.662-11.601,10.79
		c-18.305,0.311-36.61,0.498-54.917,0.698c-16.145,0.176-32.29,0.335-48.437,0.433c-7.835,0.047-11.25-3.382-11.228-11.252
		c0.04-14.314,0.098-28.63,0.282-42.943c0.111-8.542,3.649-12.102,12.282-12.161c17.313-0.119,34.626-0.035,51.939-0.035
		C1208.544,912.352,1208.544,912.131,1208.544,911.91z M1148.78,945.816c-0.274,13.297,7.984,21.829,21.544,22.051
		c12.265,0.201,24.624-9.444,24.582-21.477c-0.044-12.649-9.272-22.857-21.756-23.215
		C1158.186,922.748,1149.082,931.206,1148.78,945.816z"/>
	<path fill-rule="evenodd" clip-rule="evenodd" fill="#010101" d="M1148.78,945.816c0.302-14.61,9.405-23.068,24.37-22.641
		c12.483,0.357,21.712,10.565,21.756,23.215c0.042,12.032-12.317,21.678-24.582,21.477
		C1156.765,967.646,1148.506,959.113,1148.78,945.816z"/>
</g>
</svg>
