<?xml version="1.0" encoding="utf-8"?>
<!-- Generator: Adobe Illustrator 16.0.2, SVG Export Plug-In . SVG Version: 6.00 Build 0)  -->
<!DOCTYPE svg PUBLIC "-//W3C//DTD SVG 1.1//EN" "http://www.w3.org/Graphics/SVG/1.1/DTD/svg11.dtd">
<svg version="1.1" xmlns="http://www.w3.org/2000/svg" xmlns:xlink="http://www.w3.org/1999/xlink" x="0px" y="0px"
	 width="4328.961px" height="837.063px" viewBox="0 0 4328.961 837.063" enable-background="new 0 0 4328.961 837.063"
	 xml:space="preserve">
<g id="Layer_2">
</g>
<g id="Layer_4">
	<g>
		<path opacity="0.8" fill="#FFFFFF" d="M164.604,242.188c0-18.039-0.751-38.332-6.013-54.116
			c-5.261-15.032-13.529-25.555-26.307-25.555c-21.045,0.751-27.81,22.548-27.81,54.868c0,18.79,8.268,38.332,20.294,59.377
			c12.026,21.046,27.81,42.843,43.594,66.143c18.791,27.81,37.581,56.371,51.862,84.182c14.28,27.81,24.052,56.371,24.052,86.436
			c0,36.829-6.013,71.403-23.3,96.958c-17.287,25.556-45.097,42.091-89.442,42.091c-51.862,0-81.175-19.542-97.71-49.606
			s-20.293-69.9-20.293-111.239l79.671-7.517c0,23.301,0.751,46.601,6.765,63.888c5.261,18.039,14.28,30.064,31.568,30.064
			c24.052,0,33.071-25.555,33.071-60.881c0-18.039-9.019-39.084-21.045-60.881c-6.765-10.522-13.529-21.797-21.045-33.071
			c-15.784-22.548-33.071-48.104-51.11-75.913c-18.039-27.81-31.568-56.371-39.836-85.685c-4.51-14.28-6.765-29.313-6.765-44.345
			c0-30.065,6.765-62.385,24.052-87.188c17.287-24.052,43.594-41.339,81.926-42.09c48.855-0.752,77.417,19.542,93.201,48.854
			c15.784,30.065,20.294,66.895,20.294,97.711L164.604,242.188z"/>
		<path opacity="0.6" fill="#FFFFFF" d="M403.109,579.914c-1.503,26.558-9.521,45.098-27.058,59.629
			c-9.02,7.517-21.547,11.024-38.083,11.024c-32.57,0-48.605-18.039-56.623-36.078c-4.51-10.522-7.516-22.549-8.017-36.078V440.613
			c1.503-26.558,9.521-46.1,27.059-61.132c8.518-7.517,21.045-11.023,37.581-11.023c32.57,0,49.106,18.038,57.124,35.576
			c4.51,10.523,7.516,22.048,8.017,35.076V579.914z M355.506,440.613c0.501-10.522-1.503-18.039-6.514-24.052
			c-2.505-2.506-6.514-4.009-11.024-4.009c-9.521,0-13.529,6.515-15.534,14.03c-1.503,4.009-2.004,8.519-1.503,14.03v137.798
			c-0.501,10.522,2.004,18.039,6.514,23.551c2.505,2.506,6.013,4.009,10.523,4.009c9.521,0,14.03-6.013,16.035-13.529
			c1.503-4.009,2.004-8.519,1.503-14.03V440.613z"/>
		<path opacity="0.6" fill="#FFFFFF" d="M446.707,646.559V418.064h-25.555v-45.599h25.555v-7.516c0-14.03,0.501-36.579,7.517-55.119
			s21.045-33.573,50.609-33.573c8.017,0,13.529,0.502,17.538,2.005l6.013,1.503v43.595c-1.503-0.501-3.006-0.501-4.51-1.003
			c-3.508-0.501-7.015-1.002-10.523-1.002c-8.518,0-12.527,7.517-14.531,17.037c-1.002,5.011-1.503,10.021-1.503,15.032
			s0,9.02,0,12.026v7.015h25.556v45.599h-25.556v228.494H446.707z"/>
		<path opacity="0.6" fill="#FFFFFF" d="M613.563,304.82v67.646h34.575v45.599h-34.575v136.295c0,8.519,0,19.542,2.004,28.562
			s6.013,16.536,14.03,16.536c4.009,0,9.02-0.501,12.527-1.002c2.004-0.502,4.009-0.502,6.013-1.003v49.607
			c-2.506,0.501-5.011,1.503-7.517,2.005c-5.011,1.002-11.525,1.503-19.542,1.503c-29.564,0-43.594-15.032-50.609-34.074
			c-7.015-19.041-7.517-42.091-7.517-58.125V418.064h-25.555v-45.599h25.555V304.82H613.563z"/>
		<path opacity="0.6" fill="#FFFFFF" d="M788.939,646.559l-19.543-130.783l-2.505-15.533h-2.005l-2.505,15.533l-19.542,130.783
			h-42.091L660.16,372.466h46.1l16.035,143.31l2.005,15.534h3.006l2.506-15.534l21.045-143.31h30.066l21.046,143.31l2.505,15.534
			h3.007l2.004-15.534l16.035-143.31h46.1L831.03,646.559H788.939z"/>
		<path opacity="0.6" fill="#FFFFFF" d="M969.827,437.607c0-4.51,0-11.525-1.503-16.536c-2.005-5.011-6.014-8.519-12.527-8.519
			c-8.519,0-12.026,6.515-13.529,14.531c-0.501,4.009-1.002,8.519-1.002,13.028s0,9.02,0,13.028h-50.609v-11.524
			c0-20.044,7.516-38.083,19.542-51.612s29.063-21.546,48.605-21.546c16.535,0,31.568,6.514,43.093,17.537
			c11.525,11.024,18.54,26.558,18.54,44.597v168.364c0,24.553,1.503,35.576,3.508,47.603h-49.607
			c-4.51-5.512-4.51-18.54-4.51-22.048h-3.508c-2.505,4.51-7.015,11.024-14.03,16.536c-7.015,5.512-16.535,9.521-26.558,9.521
			c-6.514,0-17.036-2.506-25.054-12.527c-8.519-9.521-15.533-26.558-15.533-55.119c0-30.566,9.02-52.613,21.045-67.646
			c12.026-15.032,27.059-24.553,39.586-31.066c12.527-6.515,22.048-11.024,24.052-16.536V437.607z M969.827,514.272
			c-24.553,10.522-35.076,35.076-35.076,61.132c0,3.508,0.502,9.521,2.506,15.033c2.004,6.013,5.512,10.522,11.525,10.522
			c11.524,0,21.045-7.015,21.045-16.536V514.272z"/>
		<path opacity="0.6" fill="#FFFFFF" d="M1154.729,424.579c-4.51-1.504-9.521-2.005-14.03-2.005c-8.017,0-17.537,1.003-25.555,8.519
			c-9.521,8.018-11.024,16.536-11.024,25.054v190.412h-50.609V372.466h50.609v30.566c0.502-3.508,4.009-12.026,12.026-20.043
			c8.018-7.517,20.043-14.531,38.583-14.531V424.579z"/>
		<path opacity="0.6" fill="#FFFFFF" d="M1301.539,548.347v31.567c-1.503,26.558-9.521,45.098-27.56,59.629
			c-9.02,7.517-21.547,11.024-38.082,11.024c-32.57,0-49.106-18.039-57.124-36.078c-4.51-10.522-7.516-22.549-8.017-36.078V440.613
			c1.503-26.558,10.021-46.1,28.061-61.132c8.518-7.517,21.045-11.023,37.581-11.023c32.57,0,49.106,18.038,57.123,35.576
			c4.51,10.523,7.517,22.048,8.018,35.076v79.672h-83.681v59.629c0.501,10.522,3.508,18.039,8.018,23.551
			c2.505,2.506,6.013,4.009,10.522,4.009c9.521,0,14.03-6.013,16.034-13.529c1.504-4.009,2.005-8.519,2.005-14.03v-30.064H1301.539z
			 M1217.858,479.196h36.579v-38.583c0-10.522-2.005-18.039-7.016-24.052c-2.505-2.506-6.514-4.009-11.023-4.009
			c-9.521,0-13.529,6.515-16.035,14.03c-1.503,4.009-2.004,8.519-2.505,14.03V479.196z"/>
		<path opacity="0.8" fill="#FFFFFF" d="M1423.291,646.559V94.12h63.888c75.162,0,115.749,15.032,137.546,57.123
			c21.046,42.091,24.052,111.239,24.052,219.472c0,108.233-3.006,176.63-24.052,218.721
			c-21.797,42.091-62.384,57.123-137.546,57.123H1423.291z M1504.466,565.384c27.81,0,43.594-3.007,51.861-30.064
			c3.759-12.777,6.765-32.319,7.517-58.626c0.751-26.306,0.751-61.632,0.751-106.729c0-45.098,0-80.423-0.752-106.729
			c-0.751-25.557-3.757-45.099-7.516-58.628c-8.268-26.307-24.052-29.313-51.861-29.313V565.384z"/>
		<path opacity="0.6" fill="#FFFFFF" d="M1819.641,548.347v31.567c-1.503,26.558-9.521,45.098-27.56,59.629
			c-9.02,7.517-21.547,11.024-38.082,11.024c-32.57,0-49.106-18.039-57.124-36.078c-4.51-10.522-7.516-22.549-8.017-36.078V440.613
			c1.503-26.558,10.021-46.1,28.061-61.132c8.518-7.517,21.045-11.023,37.581-11.023c32.57,0,49.106,18.038,57.123,35.576
			c4.51,10.523,7.517,22.048,8.018,35.076v79.672h-83.681v59.629c0.501,10.522,3.508,18.039,8.018,23.551
			c2.505,2.506,6.013,4.009,10.522,4.009c9.521,0,14.03-6.013,16.034-13.529c1.504-4.009,2.005-8.519,2.005-14.03v-30.064H1819.641z
			 M1735.96,479.196h36.579v-38.583c0-10.522-2.005-18.039-7.016-24.052c-2.505-2.506-6.514-4.009-11.023-4.009
			c-9.521,0-13.529,6.515-16.035,14.03c-1.503,4.009-2.004,8.519-2.505,14.03V479.196z"/>
		<path opacity="0.6" fill="#FFFFFF" d="M1862.232,646.559V418.064h-25.556v-45.599h25.556v-7.516
			c0-14.03,0.501-36.579,7.516-55.119c7.016-18.54,21.046-33.573,50.609-33.573c8.018,0,13.529,0.502,17.538,2.005l6.014,1.503
			v43.595c-1.504-0.501-3.007-0.501-4.51-1.003c-3.508-0.501-7.016-1.002-10.523-1.002c-8.519,0-12.527,7.517-14.531,17.037
			c-1.002,5.011-1.503,10.021-1.503,15.032s0,9.02,0,12.026v7.015h25.555v45.599h-25.555v228.494H1862.232z"/>
		<path opacity="0.6" fill="#FFFFFF" d="M1967.956,278.263h50.609v50.609h-50.609V278.263z M1967.956,646.559V372.466h50.609
			v274.093H1967.956z"/>
		<path opacity="0.6" fill="#FFFFFF" d="M2109.261,646.559h-50.609V372.466h50.609v23.05c1.003-0.501,3.007-2.505,6.014-5.512
			c5.512-5.512,13.028-13.028,22.048-18.039c4.51-2.505,8.518-3.507,13.027-3.507c13.529,0,23.05,8.017,29.063,18.038
			c6.013,10.523,9.02,24.053,9.02,35.577v224.485h-50.609V429.59c0-10.522-6.014-12.026-12.026-12.026
			c-5.512,0-8.519,3.007-12.026,6.515c-1.503,2.004-3.006,4.009-4.51,6.514V646.559z"/>
		<path opacity="0.6" fill="#FFFFFF" d="M2354.284,548.347v31.567c-1.503,26.558-9.521,45.098-27.56,59.629
			c-9.02,7.517-21.547,11.024-38.082,11.024c-32.57,0-49.106-18.039-57.124-36.078c-4.51-10.522-7.516-22.549-8.018-36.078V440.613
			c1.504-26.558,10.022-46.1,28.062-61.132c8.518-7.517,21.045-11.023,37.581-11.023c32.57,0,49.106,18.038,57.123,35.576
			c4.51,10.523,7.517,22.048,8.018,35.076v79.672h-83.681v59.629c0.501,10.522,3.508,18.039,8.018,23.551
			c2.505,2.506,6.013,4.009,10.522,4.009c9.521,0,14.03-6.013,16.034-13.529c1.504-4.009,2.005-8.519,2.005-14.03v-30.064H2354.284z
			 M2270.604,479.196h36.579v-38.583c0-10.522-2.005-18.039-7.016-24.052c-2.505-2.506-6.514-4.009-11.023-4.009
			c-9.521,0-13.529,6.515-16.035,14.03c-1.503,4.009-2.004,8.519-2.505,14.03V479.196z"/>
		<path opacity="0.6" fill="#FFFFFF" d="M2516.629,646.559h-50.609V628.52c-8.519,8.018-16.034,14.03-25.555,18.54
			c-5.011,2.506-10.022,3.508-14.532,3.508c-14.03,0-23.551-8.018-29.563-18.54c-6.514-10.021-9.521-23.551-9.521-35.076V422.073
			c0-11.524,3.007-25.054,9.521-35.577c6.013-10.021,15.533-18.038,29.563-18.038c9.521,0,19.543,5.512,27.059,11.023
			c4.51,3.508,8.519,7.015,13.028,11.023V278.263h50.609V646.559z M2466.02,432.597c0-8.018-7.516-16.536-15.032-16.536
			s-13.529,7.015-13.529,16.536v153.832c0,9.521,6.013,16.535,13.529,16.535s15.032-7.015,15.032-16.535V432.597z"/>
		<path opacity="0.8" fill="#FFFFFF" d="M2729.577,358.689l-6.765-25.555h-4.51v313.424h-74.41V94.12h72.155l78.92,287.869
			l6.765,25.556h4.51V94.12h74.41v552.438h-72.155L2729.577,358.689z"/>
		<path opacity="0.6" fill="#FFFFFF" d="M3057.526,548.347v31.567c-1.503,26.558-9.521,45.098-27.56,59.629
			c-9.02,7.517-21.547,11.024-38.082,11.024c-32.57,0-49.106-18.039-57.124-36.078c-4.51-10.522-7.516-22.549-8.018-36.078V440.613
			c1.504-26.558,10.022-46.1,28.062-61.132c8.518-7.517,21.045-11.023,37.581-11.023c32.57,0,49.106,18.038,57.123,35.576
			c4.51,10.523,7.517,22.048,8.018,35.076v79.672h-83.681v59.629c0.501,10.522,3.508,18.039,8.018,23.551
			c2.505,2.506,6.013,4.009,10.522,4.009c9.521,0,14.03-6.013,16.034-13.529c1.504-4.009,2.005-8.519,2.005-14.03v-30.064H3057.526z
			 M2973.846,479.196h36.579v-38.583c0-10.522-2.005-18.039-7.016-24.052c-2.505-2.506-6.514-4.009-11.023-4.009
			c-9.521,0-13.529,6.515-16.035,14.03c-1.503,4.009-2.004,8.519-2.505,14.03V479.196z"/>
		<path opacity="0.6" fill="#FFFFFF" d="M3150.727,304.82v67.646h34.574v45.599h-34.574v136.295c0,8.519,0,19.542,2.004,28.562
			c2.005,9.02,6.013,16.536,14.03,16.536c4.009,0,9.02-0.501,12.527-1.002c2.004-0.502,4.009-0.502,6.013-1.003v49.607
			c-2.505,0.501-5.011,1.503-7.516,2.005c-5.011,1.002-11.525,1.503-19.543,1.503c-29.563,0-43.594-15.032-50.609-34.074
			c-7.015-19.041-7.516-42.091-7.516-58.125V418.064h-25.556v-45.599h25.556V304.82H3150.727z"/>
		<path opacity="0.6" fill="#FFFFFF" d="M3326.102,646.559l-19.542-130.783l-2.506-15.533h-2.004l-2.506,15.533l-19.542,130.783
			h-42.091l-40.588-274.093h46.1l16.035,143.31l2.004,15.534h3.007l2.505-15.534l21.046-143.31h30.064l21.046,143.31l2.506,15.534
			h3.006l2.005-15.534l16.034-143.31h46.1l-40.588,274.093H3326.102z"/>
		<path opacity="0.6" fill="#FFFFFF" d="M3557.599,579.914c-1.504,26.558-9.521,45.098-27.059,59.629
			c-9.02,7.517-21.547,11.024-38.082,11.024c-32.571,0-48.605-18.039-56.623-36.078c-4.51-10.522-7.516-22.549-8.018-36.078V440.613
			c1.504-26.558,9.521-46.1,27.059-61.132c8.519-7.517,21.046-11.023,37.582-11.023c32.57,0,49.105,18.038,57.123,35.576
			c4.51,10.523,7.517,22.048,8.018,35.076V579.914z M3509.995,440.613c0.501-10.522-1.503-18.039-6.514-24.052
			c-2.506-2.506-6.515-4.009-11.023-4.009c-9.521,0-13.529,6.515-15.534,14.03c-1.503,4.009-2.004,8.519-1.503,14.03v137.798
			c-0.501,10.522,2.004,18.039,6.514,23.551c2.506,2.506,6.014,4.009,10.523,4.009c9.521,0,14.03-6.013,16.034-13.529
			c1.503-4.009,2.004-8.519,1.503-14.03V440.613z"/>
		<path opacity="0.6" fill="#FFFFFF" d="M3693.39,424.579c-4.51-1.504-9.521-2.005-14.03-2.005c-8.017,0-17.537,1.003-25.555,8.519
			c-9.521,8.018-11.024,16.536-11.024,25.054v190.412h-50.609V372.466h50.609v30.566c0.502-3.508,4.009-12.026,12.026-20.043
			c8.018-7.517,20.043-14.531,38.583-14.531V424.579z"/>
		<path opacity="0.6" fill="#FFFFFF" d="M3766.038,278.263v174.878h2.506l3.007-9.02l24.553-71.655h45.599l-36.579,89.193
			l46.1,184.899h-48.605l-25.054-110.739l-1.002-4.009h-2.506l-1.503,4.009l-6.515,16.034v94.705h-50.609V278.263H3766.038z"/>
		<path opacity="0.6" fill="#FFFFFF" d="M3872.261,278.263h50.609v50.609h-50.609V278.263z M3872.261,646.559V372.466h50.609
			v274.093H3872.261z"/>
		<path opacity="0.6" fill="#FFFFFF" d="M4013.565,646.559h-50.609V372.466h50.609v23.05c1.003-0.501,3.007-2.505,6.014-5.512
			c5.512-5.512,13.028-13.028,22.048-18.039c4.51-2.505,8.518-3.507,13.027-3.507c13.529,0,23.05,8.017,29.063,18.038
			c6.013,10.523,9.02,24.053,9.02,35.577v224.485h-50.609V429.59c0-10.522-6.014-12.026-12.026-12.026
			c-5.512,0-8.519,3.007-12.026,6.515c-1.503,2.004-3.006,4.009-4.51,6.514V646.559z"/>
		<path opacity="0.6" fill="#FFFFFF" d="M4255.582,514.272c-1.503,25.556-10.522,43.595-28.061,57.124
			c-9.02,7.015-21.546,10.522-37.08,10.522c-1.503,0-3.006,0-4.51,0c-1.503,0-3.508,0-5.011-0.501
			c-4.51,4.009-7.015,8.018-7.015,12.527c0,6.013,5.011,9.521,12.526,11.524c7.517,2.506,16.536,4.009,26.057,5.512
			c16.034,2.005,33.071,6.014,47.102,15.534c13.529,9.521,23.05,24.052,23.05,48.104c0,26.558-11.524,44.597-27.56,55.119
			c-16.535,10.522-38.583,15.032-59.128,15.032c-24.052-0.501-44.596-4.008-58.626-12.025
			c-14.532-8.018-22.549-21.046-22.549-41.089c0-9.521,5.011-17.538,12.526-24.554c7.517-7.015,17.538-12.526,27.059-17.036
			c-16.535-4.51-30.565-15.033-30.565-36.579c0-8.018,4.51-16.035,10.522-23.551c6.013-7.517,13.529-13.529,21.046-17.538
			c-14.532-9.521-21.547-24.554-25.055-37.08c-2.004-7.517-3.508-15.033-4.009-22.549v-74.661
			c2.005-25.556,10.021-44.096,27.56-58.627c8.519-7.517,21.046-11.023,36.579-11.023c25.556,0,41.089,11.524,50.609,25.054
			c3.508-3.508,9.521-9.521,17.538-15.032c7.517-5.512,16.035-10.021,24.052-10.021v45.097c-13.529,0-23.551,2.506-29.563,6.014
			c0.501,2.505,1.002,5.011,1.503,6.514c0,2.005,0,4.009,0.501,5.512c0.501,1.504,0.501,3.508,0.501,5.011V514.272z
			 M4182.424,659.086c-10.522,6.013-18.54,13.529-18.54,24.052s9.521,19.041,33.072,19.041c8.518,0,18.039-1.503,25.555-4.51
			c7.517-3.007,13.028-7.516,13.028-14.03c0-4.51-0.501-8.018-4.009-11.524c-4.009-3.508-10.522-6.014-23.05-8.018L4182.424,659.086
			z M4205.976,440.112c0-9.521-2.005-15.533-6.014-21.045c-2.004-2.506-5.011-4.009-9.521-4.009
			c-8.018,0-12.025,6.514-13.529,12.526c-1.002,3.508-1.503,8.018-1.002,12.527v75.162c-0.501,9.521,1.002,15.534,5.512,20.545
			c2.005,2.505,5.011,4.009,9.02,4.009c8.519,0,12.026-6.014,14.03-12.026c1.002-3.508,1.504-8.018,1.504-12.527V440.112z"/>
	</g>
</g>
</svg>
