<?xml version="1.0" encoding="utf-8"?>
<!-- Generator: Adobe Illustrator 16.0.2, SVG Export Plug-In . SVG Version: 6.00 Build 0)  -->
<!DOCTYPE svg PUBLIC "-//W3C//DTD SVG 1.1//EN" "http://www.w3.org/Graphics/SVG/1.1/DTD/svg11.dtd">
<svg version="1.1" id="Layer_1" xmlns="http://www.w3.org/2000/svg" xmlns:xlink="http://www.w3.org/1999/xlink" x="0px" y="0px"
	 width="64.91px" height="64.325px" viewBox="0 0 64.91 64.325" enable-background="new 0 0 64.91 64.325" xml:space="preserve">
<g>
	<g>
		
			<image overflow="visible" opacity="0.3" width="297" height="295" xlink:href="45242996.png"  transform="matrix(0.24 0 0 0.24 211.9443 352.8755)">
		</image>
		<g>
			<linearGradient id="SVGID_1_" gradientUnits="userSpaceOnUse" x1="247.498" y1="355.0005" x2="247.498" y2="419.3247">
				<stop  offset="0" style="stop-color:#FFFFFF"/>
				<stop  offset="1" style="stop-color:#DBDADA"/>
			</linearGradient>
			<path fill-rule="evenodd" clip-rule="evenodd" fill="url(#SVGID_1_)" d="M279.893,412.936c0,3.527-2.86,6.389-6.39,6.389h-52.045
				c-3.528,0-6.389-2.861-6.389-6.389l0.033-51.547c0-3.527,2.86-6.389,6.39-6.389h52.045c3.528,0,6.389,2.861,6.389,6.389
				L279.893,412.936z"/>
			<path fill="none" stroke="#DCD6D2" stroke-width="0.25" stroke-miterlimit="10" d="M279.893,412.936
				c0,3.527-2.86,6.389-6.39,6.389h-52.045c-3.528,0-6.389-2.861-6.389-6.389l0.033-51.547c0-3.527,2.86-6.389,6.39-6.389h52.045
				c3.528,0,6.389,2.861,6.389,6.389L279.893,412.936z"/>
		</g>
	</g>
	<g>
		<path opacity="0.3" fill-rule="evenodd" clip-rule="evenodd" fill="#040303" d="M242.634,359.344h-3.179l-2.146,8.246
			l-2.231-8.246h-3.308c0.662,1.947,1.352,3.902,2.015,5.85c1.009,2.93,1.637,5.137,1.922,6.643v8.504h3.145v-8.504L242.634,359.344
			z M251.034,375.274v-5.479c0-1.672-0.285-2.895-0.88-3.686c-0.783-1.07-1.888-1.604-3.309-1.604c-1.412,0-2.515,0.533-3.299,1.604
			c-0.603,0.791-0.888,2.014-0.888,3.686v5.479c0,1.664,0.285,2.896,0.888,3.68c0.784,1.066,1.887,1.602,3.299,1.602
			c1.421,0,2.525-0.535,3.309-1.602C250.749,378.17,251.034,376.938,251.034,375.274z M248.199,375.809
			c0,1.447-0.439,2.172-1.354,2.172c-0.913,0-1.352-0.725-1.352-2.172v-6.582c0-1.447,0.438-2.17,1.352-2.17
			c0.914,0,1.354,0.723,1.354,2.17V375.809z M261.518,380.34v-15.646h-2.835v11.959c-0.628,0.889-1.223,1.328-1.789,1.328
			c-0.381,0-0.604-0.227-0.666-0.664c-0.034-0.094-0.034-0.439-0.034-1.104v-11.52h-2.826v12.373c0,1.104,0.096,1.852,0.252,2.326
			c0.282,0.791,0.913,1.162,1.825,1.162c1.034,0,2.109-0.627,3.238-1.922v1.707H261.518z"/>
		<linearGradient id="SVGID_2_" gradientUnits="userSpaceOnUse" x1="246.6523" y1="380.2153" x2="246.6523" y2="359.0044">
			<stop  offset="0" style="stop-color:#3E3D3D"/>
			<stop  offset="0.0823" style="stop-color:#383737"/>
			<stop  offset="0.2515" style="stop-color:#2F2D2D"/>
			<stop  offset="0.4403" style="stop-color:#292526"/>
			<stop  offset="0.6624" style="stop-color:#242121"/>
			<stop  offset="1" style="stop-color:#231F20"/>
		</linearGradient>
		<path fill-rule="evenodd" clip-rule="evenodd" fill="url(#SVGID_2_)" d="M242.641,359.004h-3.179l-2.144,8.244l-2.232-8.244
			h-3.308c0.662,1.945,1.353,3.902,2.016,5.85c1.008,2.928,1.637,5.135,1.921,6.643v8.502h3.145v-8.502L242.641,359.004z
			 M251.043,374.934v-5.48c0-1.672-0.286-2.895-0.88-3.686c-0.785-1.068-1.887-1.604-3.308-1.604c-1.412,0-2.517,0.535-3.301,1.604
			c-0.603,0.791-0.888,2.014-0.888,3.686v5.48c0,1.662,0.285,2.895,0.888,3.68c0.784,1.066,1.889,1.602,3.301,1.602
			c1.421,0,2.522-0.535,3.308-1.602C250.757,377.829,251.043,376.596,251.043,374.934z M248.207,375.467
			c0,1.447-0.438,2.172-1.352,2.172c-0.915,0-1.354-0.725-1.354-2.172v-6.582c0-1.447,0.438-2.168,1.354-2.168
			c0.914,0,1.352,0.721,1.352,2.168V375.467z M261.527,379.999v-15.645h-2.836v11.957c-0.628,0.889-1.224,1.328-1.79,1.328
			c-0.381,0-0.603-0.225-0.665-0.664c-0.034-0.092-0.034-0.438-0.034-1.104v-11.518h-2.826v12.371c0,1.104,0.095,1.854,0.251,2.326
			c0.283,0.793,0.913,1.164,1.826,1.164c1.033,0,2.11-0.629,3.238-1.924v1.707H261.527z"/>
	</g>
	
		<linearGradient id="SVGID_3_" gradientUnits="userSpaceOnUse" x1="-217.7451" y1="353.8403" x2="-217.7451" y2="321.4858" gradientTransform="matrix(-1 0 0 1 29.7559 61.3242)">
		<stop  offset="0" style="stop-color:#6D0F14"/>
		<stop  offset="0.6676" style="stop-color:#AE2A27"/>
		<stop  offset="1" style="stop-color:#CD352D"/>
	</linearGradient>
	<path fill-rule="evenodd" clip-rule="evenodd" fill="url(#SVGID_3_)" d="M270.712,398.987c0,3.619-0.005,7.457-0.814,10.973
		c-0.566,2.469-2.587,4.289-5.017,4.561c-5.757,0.643-11.583,0.646-17.383,0.643c-5.801,0.004-11.627,0-17.383-0.643
		c-2.431-0.271-4.448-2.092-5.016-4.561c-0.809-3.516-0.809-7.354-0.809-10.973l0,0c0-3.621,0.009-7.457,0.818-10.975
		c0.566-2.467,2.585-4.287,5.016-4.559c5.756-0.645,11.582-0.646,17.383-0.645c5.8-0.002,11.626,0,17.383,0.645
		c2.43,0.271,4.449,2.092,5.017,4.559C270.716,391.53,270.712,395.366,270.712,398.987L270.712,398.987z"/>
	<linearGradient id="SVGID_4_" gradientUnits="userSpaceOnUse" x1="247.502" y1="409.2427" x2="247.502" y2="388.2505">
		<stop  offset="0" style="stop-color:#D5D6D2"/>
		<stop  offset="0.1136" style="stop-color:#DEDFDC"/>
		<stop  offset="0.3696" style="stop-color:#EFEEEC"/>
		<stop  offset="0.6503" style="stop-color:#FAF9F9"/>
		<stop  offset="1" style="stop-color:#FFFFFF"/>
	</linearGradient>
	<path fill-rule="evenodd" clip-rule="evenodd" fill="url(#SVGID_4_)" d="M237.531,391.176v-2.926h-9.78v2.926h3.3v17.854h3.12
		v-17.854H237.531z M243.2,409.03v-1.689c-1.114,1.279-2.174,1.902-3.205,1.902c-0.904,0-1.527-0.367-1.808-1.152
		c-0.154-0.469-0.247-1.207-0.247-2.301v-12.242h2.804v11.398c0,0.656,0,1,0.026,1.09c0.067,0.436,0.281,0.656,0.656,0.656
		c0.563,0,1.151-0.434,1.773-1.313v-11.832h2.808v15.482H243.2z M253.859,404.604c0,1.398-0.411,2.088-1.221,2.088
		c-0.461,0-0.929-0.221-1.397-0.689v-9.438c0.469-0.461,0.937-0.682,1.397-0.682c0.81,0,1.221,0.717,1.221,2.113V404.604z
		 M256.664,404.383v-6.166c0-1.465-0.096-2.488-0.282-3.111c-0.375-1.16-1.125-1.748-2.243-1.748c-1.031,0-1.992,0.564-2.897,1.68
		v-6.787h-2.806v20.779h2.806v-1.502c0.937,1.16,1.9,1.715,2.897,1.715c1.118,0,1.868-0.588,2.243-1.74
		C256.568,406.846,256.664,405.815,256.664,404.383z M264.447,399.463h-2.805v-1.432c0-1.432,0.469-2.148,1.406-2.148
		c0.929,0,1.398,0.717,1.398,2.148V399.463z M267.252,404.077v-0.41h-2.863c0,1.125-0.035,1.748-0.061,1.9
		c-0.16,0.75-0.563,1.125-1.254,1.125c-0.963,0-1.432-0.715-1.432-2.148v-2.744h5.609v-3.207c0-1.654-0.281-2.863-0.868-3.646
		c-0.785-1.061-1.902-1.588-3.31-1.588c-1.432,0-2.55,0.527-3.359,1.588c-0.597,0.783-0.867,1.992-0.867,3.646v5.424
		c0,1.645,0.306,2.867,0.901,3.641c0.811,1.057,1.927,1.586,3.396,1.586c1.465,0,2.615-0.555,3.393-1.678
		c0.34-0.498,0.561-1.061,0.655-1.682C267.218,405.602,267.252,404.979,267.252,404.077z"/>
</g>
<g>
	<g>
		
			<image overflow="visible" opacity="0.3" width="297" height="295" xlink:href="4524299A.png"  transform="matrix(0.24 0 0 0.24 -3.0557 -2.125)">
		</image>
		<g>
			<linearGradient id="SVGID_5_" gradientUnits="userSpaceOnUse" x1="32.4976" y1="0" x2="32.4976" y2="64.3252">
				<stop  offset="0" style="stop-color:#FFFFFF"/>
				<stop  offset="1" style="stop-color:#DBDADA"/>
			</linearGradient>
			<path fill-rule="evenodd" clip-rule="evenodd" fill="url(#SVGID_5_)" d="M64.893,57.936c0,3.527-2.86,6.389-6.39,6.389H6.458
				c-3.528,0-6.389-2.861-6.389-6.389L0.103,6.389C0.103,2.861,2.963,0,6.492,0h52.045c3.528,0,6.389,2.861,6.389,6.389
				L64.893,57.936z"/>
			<path fill="none" stroke="#DCD6D2" stroke-width="0.25" stroke-miterlimit="10" d="M64.893,57.936c0,3.527-2.86,6.389-6.39,6.389
				H6.458c-3.528,0-6.389-2.861-6.389-6.389L0.103,6.389C0.103,2.861,2.963,0,6.492,0h52.045c3.528,0,6.389,2.861,6.389,6.389
				L64.893,57.936z"/>
		</g>
	</g>
	<g>
		<path opacity="0.3" fill-rule="evenodd" clip-rule="evenodd" fill="#040303" d="M27.634,4.344h-3.179L22.31,12.59l-2.231-8.246
			h-3.308c0.662,1.947,1.352,3.902,2.015,5.85c1.009,2.93,1.637,5.137,1.922,6.643v8.504h3.145v-8.504L27.634,4.344z M36.034,20.273
			v-5.479c0-1.672-0.285-2.895-0.88-3.686c-0.783-1.07-1.888-1.604-3.309-1.604c-1.412,0-2.515,0.533-3.299,1.604
			c-0.603,0.791-0.888,2.014-0.888,3.686v5.479c0,1.664,0.285,2.896,0.888,3.68c0.784,1.066,1.887,1.602,3.299,1.602
			c1.421,0,2.525-0.535,3.309-1.602C35.749,23.17,36.034,21.938,36.034,20.273z M33.199,20.809c0,1.447-0.439,2.172-1.354,2.172
			c-0.913,0-1.352-0.725-1.352-2.172v-6.582c0-1.447,0.438-2.17,1.352-2.17c0.914,0,1.354,0.723,1.354,2.17V20.809z M46.518,25.34
			V9.693h-2.835v11.959c-0.628,0.889-1.223,1.328-1.789,1.328c-0.381,0-0.604-0.227-0.666-0.664
			c-0.034-0.094-0.034-0.439-0.034-1.104V9.693h-2.826v12.373c0,1.104,0.096,1.852,0.252,2.326c0.282,0.791,0.913,1.162,1.825,1.162
			c1.034,0,2.109-0.627,3.238-1.922v1.707H46.518z"/>
		<linearGradient id="SVGID_6_" gradientUnits="userSpaceOnUse" x1="31.6528" y1="25.2148" x2="31.6528" y2="4.0039">
			<stop  offset="0" style="stop-color:#3E3D3D"/>
			<stop  offset="0.0823" style="stop-color:#383737"/>
			<stop  offset="0.2515" style="stop-color:#2F2D2D"/>
			<stop  offset="0.4403" style="stop-color:#292526"/>
			<stop  offset="0.6624" style="stop-color:#242121"/>
			<stop  offset="1" style="stop-color:#231F20"/>
		</linearGradient>
		<path fill-rule="evenodd" clip-rule="evenodd" fill="url(#SVGID_6_)" d="M27.641,4.004h-3.179l-2.144,8.244l-2.232-8.244h-3.308
			c0.662,1.945,1.353,3.902,2.016,5.85c1.008,2.928,1.637,5.135,1.921,6.643v8.502h3.145v-8.502L27.641,4.004z M36.043,19.934v-5.48
			c0-1.672-0.286-2.895-0.88-3.686c-0.785-1.068-1.887-1.604-3.308-1.604c-1.412,0-2.517,0.535-3.301,1.604
			c-0.603,0.791-0.888,2.014-0.888,3.686v5.48c0,1.662,0.285,2.895,0.888,3.68c0.784,1.066,1.889,1.602,3.301,1.602
			c1.421,0,2.522-0.535,3.308-1.602C35.757,22.828,36.043,21.596,36.043,19.934z M33.207,20.467c0,1.447-0.438,2.172-1.352,2.172
			c-0.915,0-1.354-0.725-1.354-2.172v-6.582c0-1.447,0.438-2.168,1.354-2.168c0.914,0,1.352,0.721,1.352,2.168V20.467z
			 M46.527,24.998V9.354h-2.836v11.957c-0.628,0.889-1.224,1.328-1.79,1.328c-0.381,0-0.603-0.225-0.665-0.664
			c-0.034-0.092-0.034-0.438-0.034-1.104V9.354h-2.826v12.371c0,1.104,0.095,1.854,0.251,2.326c0.283,0.793,0.913,1.164,1.826,1.164
			c1.033,0,2.11-0.629,3.238-1.924v1.707H46.527z"/>
	</g>
	
		<linearGradient id="SVGID_7_" gradientUnits="userSpaceOnUse" x1="-2.7456" y1="-1.1606" x2="-2.7456" y2="-33.5156" gradientTransform="matrix(-1 0 0 1 29.7559 61.3242)">
		<stop  offset="0" style="stop-color:#6D0F14"/>
		<stop  offset="0.6676" style="stop-color:#AE2A27"/>
		<stop  offset="1" style="stop-color:#CD352D"/>
	</linearGradient>
	<path fill-rule="evenodd" clip-rule="evenodd" fill="url(#SVGID_7_)" d="M55.712,43.987c0,3.619-0.005,7.457-0.814,10.973
		c-0.566,2.469-2.587,4.289-5.017,4.561c-5.757,0.643-11.583,0.646-17.383,0.643c-5.801,0.004-11.627,0-17.383-0.643
		c-2.431-0.271-4.448-2.092-5.016-4.561c-0.809-3.516-0.809-7.354-0.809-10.973l0,0c0-3.621,0.009-7.457,0.818-10.975
		c0.566-2.467,2.585-4.288,5.016-4.559c5.756-0.645,11.582-0.646,17.383-0.645c5.8-0.002,11.626,0,17.383,0.645
		c2.43,0.271,4.449,2.092,5.017,4.559C55.716,36.53,55.712,40.366,55.712,43.987L55.712,43.987z"/>
	<linearGradient id="SVGID_8_" gradientUnits="userSpaceOnUse" x1="32.5015" y1="54.2427" x2="32.5015" y2="33.2505">
		<stop  offset="0" style="stop-color:#D5D6D2"/>
		<stop  offset="0.1136" style="stop-color:#DEDFDC"/>
		<stop  offset="0.3696" style="stop-color:#EFEEEC"/>
		<stop  offset="0.6503" style="stop-color:#FAF9F9"/>
		<stop  offset="1" style="stop-color:#FFFFFF"/>
	</linearGradient>
	<path fill-rule="evenodd" clip-rule="evenodd" fill="url(#SVGID_8_)" d="M22.531,36.176V33.25h-9.78v2.926h3.3V54.03h3.12V36.176
		H22.531z M28.2,54.03V52.34c-1.114,1.279-2.174,1.902-3.205,1.902c-0.904,0-1.527-0.367-1.808-1.152
		c-0.154-0.469-0.247-1.207-0.247-2.301V38.547h2.804v11.398c0,0.656,0,1,0.026,1.09c0.067,0.436,0.281,0.656,0.656,0.656
		c0.563,0,1.151-0.434,1.773-1.313V38.547h2.808V54.03H28.2z M38.859,49.604c0,1.398-0.411,2.088-1.221,2.088
		c-0.461,0-0.929-0.221-1.397-0.689v-9.438c0.469-0.461,0.937-0.682,1.397-0.682c0.81,0,1.221,0.717,1.221,2.113V49.604z
		 M41.664,49.383v-6.166c0-1.465-0.096-2.488-0.282-3.111c-0.375-1.16-1.125-1.748-2.243-1.748c-1.031,0-1.992,0.564-2.897,1.68
		V33.25h-2.806V54.03h2.806v-1.502c0.937,1.16,1.9,1.715,2.897,1.715c1.118,0,1.868-0.588,2.243-1.74
		C41.568,51.846,41.664,50.815,41.664,49.383z M49.447,44.463h-2.805v-1.432c0-1.432,0.469-2.148,1.406-2.148
		c0.929,0,1.398,0.717,1.398,2.148V44.463z M52.252,49.077v-0.41h-2.863c0,1.125-0.035,1.748-0.061,1.9
		c-0.16,0.75-0.563,1.125-1.254,1.125c-0.963,0-1.432-0.715-1.432-2.148v-2.744h5.609v-3.207c0-1.654-0.281-2.863-0.868-3.646
		c-0.785-1.061-1.902-1.588-3.31-1.588c-1.432,0-2.55,0.527-3.359,1.588c-0.597,0.783-0.867,1.992-0.867,3.646v5.424
		c0,1.645,0.306,2.867,0.901,3.641c0.811,1.057,1.927,1.586,3.396,1.586c1.465,0,2.615-0.555,3.393-1.678
		c0.34-0.498,0.561-1.061,0.655-1.682C52.218,50.602,52.252,49.979,52.252,49.077z"/>
</g>
</svg>
